<svg width="39" height="57" viewBox="0 0 39 57" fill="none" xmlns="http://www.w3.org/2000/svg">
<path d="M1 10.1667C1 5.10406 5.10406 1 10.1667 1H19.3333V19.3333H10.1667C5.10405 19.3333 1 15.2293 1 10.1667V10.1667Z" stroke="white" stroke-width="2"/>
<path d="M37.6667 10.1667C37.6667 5.10406 33.5626 1 28.5 1H19.3334V19.3333H28.5C33.5626 19.3333 37.6667 15.2293 37.6667 10.1667V10.1667Z" stroke="white" stroke-width="2"/>
<path d="M37.6667 28.5C37.6667 23.4374 33.5626 19.3334 28.5 19.3334V19.3334C23.4374 19.3334 19.3334 23.4374 19.3334 28.5V28.5C19.3334 33.5627 23.4374 37.6667 28.5 37.6667V37.6667C33.5626 37.6667 37.6667 33.5627 37.6667 28.5V28.5Z" stroke="white" stroke-width="2"/>
<path d="M1 28.5C1 23.4374 5.10406 19.3334 10.1667 19.3334H19.3333V37.6667H10.1667C5.10405 37.6667 1 33.5627 1 28.5V28.5Z" stroke="white" stroke-width="2"/>
<path d="M1 46.8333C1 41.7707 5.10406 37.6666 10.1667 37.6666H19.3333V46.8333C19.3333 51.8959 15.2293 56 10.1667 56V56C5.10406 56 1 51.8959 1 46.8333V46.8333Z" stroke="white" stroke-width="2"/>
</svg>
