<svg width="45" height="56" viewBox="0 0 45 56" fill="none" xmlns="http://www.w3.org/2000/svg">
<g clip-path="url(#clip0_12_37)">
<mask id="mask0_12_37" style="mask-type:luminance" maskUnits="userSpaceOnUse" x="0" y="0" width="46" height="56">
<path d="M45.4723 25.8406L30.3982 40.9201L45.4723 55.9996H28.247L13.1675 40.9201L28.247 25.8406H45.4723ZM28.247 0L0.249958 27.9971L8.86528 36.6124L45.4723 0H28.247Z" fill="white"/>
</mask>
<g mask="url(#mask0_12_37)">
<path d="M13.1729 40.9201L21.7829 49.5354L45.4723 25.8406H28.247L13.1729 40.9201Z" fill="white"/>
</g>
<mask id="mask1_12_37" style="mask-type:luminance" maskUnits="userSpaceOnUse" x="0" y="0" width="46" height="56">
<path d="M45.4723 25.8406L30.3982 40.9201L45.4723 55.9996H28.247L13.1675 40.9201L28.247 25.8406H45.4723ZM28.247 0L0.249958 27.9971L8.86528 36.6124L45.4723 0H28.247Z" fill="white"/>
</mask>
<g mask="url(#mask1_12_37)">
<path d="M28.247 0H45.4723L8.86528 36.6124L0.249958 27.9971L28.247 0Z" fill="white"/>
</g>
<mask id="mask2_12_37" style="mask-type:luminance" maskUnits="userSpaceOnUse" x="0" y="0" width="46" height="56">
<path d="M45.4723 25.8406L30.3982 40.9201L45.4723 55.9996H28.247L13.1675 40.9201L28.247 25.8406H45.4723ZM28.247 0L0.249958 27.9971L8.86528 36.6124L45.4723 0H28.247Z" fill="white"/>
</mask>
<g mask="url(#mask2_12_37)">
<path d="M21.7829 49.5354L28.247 55.9942H45.4723L30.3982 40.92L21.7829 49.5354Z" fill="white"/>
</g>
<mask id="mask3_12_37" style="mask-type:luminance" maskUnits="userSpaceOnUse" x="0" y="0" width="46" height="56">
<path d="M45.4723 25.8406L30.3982 40.9201L45.4723 55.9996H28.247L13.1675 40.9201L28.247 25.8406H45.4723ZM28.247 0L0.249958 27.9971L8.86528 36.6124L45.4723 0H28.247Z" fill="white"/>
</mask>
<g mask="url(#mask3_12_37)">
<path d="M13.172 40.9171L21.7875 32.3015L30.4036 40.9171L21.7875 49.5327L13.172 40.9171Z" fill="white"/>
</g>
<path d="M45.4723 25.8406L30.3982 40.9201L45.4723 55.9996H28.247L13.1675 40.9201L28.247 25.8406H45.4723ZM28.247 0L0.249958 27.9971L8.86528 36.6124L45.4723 0H28.247Z" fill="url(#paint0_radial_12_37)"/>
</g>
<defs>
<radialGradient id="paint0_radial_12_37" cx="0" cy="0" r="1" gradientUnits="userSpaceOnUse" gradientTransform="translate(1.52041 3.81677) scale(68.5086)">
<stop stop-color="white" stop-opacity="0.1"/>
<stop offset="1" stop-color="white" stop-opacity="0"/>
</radialGradient>
<clipPath id="clip0_12_37">
<rect width="45" height="56" fill="white"/>
</clipPath>
</defs>
</svg>
