<svg width="69" height="51" viewBox="0 0 69 51" fill="none" xmlns="http://www.w3.org/2000/svg">
<path d="M54.2268 0.0955582C51.8019 0.619457 48.9129 2.23606 48.1496 3.47845C47.8202 4.04725 47.7753 4.78071 48.0747 5.34952C48.1945 5.57405 48.7333 6.18776 49.2572 6.71165C50.1553 7.57983 50.305 7.66964 50.9936 7.74448C51.6372 7.80436 51.8468 7.74448 52.4904 7.3553C53.5532 6.69669 54.7657 6.36738 55.7985 6.47216C59.3161 6.7865 61.4416 10.6035 59.855 13.7319C59.4209 14.5851 58.2384 15.7078 57.3402 16.1119C56.7864 16.3664 56.2625 16.4861 55.6039 16.4861C53.7628 16.5161 52.3857 16.0071 46.2186 12.9685C44.2877 12.0255 41.9226 10.9328 40.9796 10.5735C34.8425 8.1636 29.0198 7.60977 22.9425 8.83719C19.4249 9.55568 14.2757 11.5764 13.1681 12.6841C12.0903 13.7469 11.7011 15.0192 11.9706 16.6059C12.0903 17.2794 12.0903 17.5788 11.9706 17.6237C11.8808 17.6537 11.2521 18.1027 10.5635 18.6266C5.90831 22.1742 2.51045 27.4132 1.0136 33.3706C0.145422 36.7984 -0.168917 40.4358 0.0855481 44.1031C0.369951 48.0847 0.68429 49.5067 1.46265 50.2103C1.76203 50.4797 2.04643 50.5096 4.81561 50.5545C8.76731 50.6294 8.90202 50.5545 9.47083 48.3392C9.80014 47.0519 10.0396 46.6328 10.9976 45.6299C12.1203 44.4474 13.2429 43.9534 14.9343 43.8786C15.9672 43.8337 16.3713 43.8786 17.0749 44.148C18.7813 44.7916 20.2482 46.3633 20.7122 48.0398C21.1313 49.5666 21.296 49.8959 21.8049 50.2402C22.2839 50.5695 22.4486 50.5845 25.1728 50.5845C27.1487 50.5845 28.1366 50.5246 28.3911 50.3899C28.9299 50.1204 29.2892 49.5516 29.5437 48.5637C30.2771 45.7197 32.253 44.0133 34.9323 43.8786C35.9053 43.8187 36.3543 43.8786 37.1177 44.133C39.0636 44.7767 40.5605 46.4831 40.9946 48.5338C41.1443 49.2672 41.294 49.5816 41.743 50.0306L42.2969 50.5845H45.3205H48.3441L48.9129 50.0157C49.4518 49.4918 49.4818 49.387 49.5716 48.2643C49.9607 43.4145 50.1853 42.1123 51.0235 39.5826C52.1761 36.1398 53.8526 33.685 56.3074 31.8289C62.9235 26.8444 67.0399 21.291 68.1475 15.8574C68.4768 14.2857 68.387 10.7681 67.9979 9.34612C67.4889 7.49002 66.2765 5.30461 64.8994 3.70298C63.5223 2.10134 61.1572 0.724236 58.9868 0.230274C57.9839 0.00574493 55.0051 -0.0840645 54.2268 0.0955582ZM58.388 2.17619C61.3967 2.84977 63.7468 4.79568 65.2137 7.84927C66.9351 11.4268 66.7555 15.3036 64.6898 19.4798C62.9235 23.0573 60.3789 25.9462 55.544 29.853C54.4513 30.7212 53.164 31.8738 52.685 32.4127C49.8859 35.5261 47.9999 40.9447 47.6257 46.9471L47.5209 48.6386H45.3055H43.1052L42.9405 47.8602C42.701 46.7376 41.9675 45.3455 41.1143 44.4025C38.7942 41.7979 34.9623 41.0645 31.744 42.6062C29.9029 43.4894 28.1067 45.7646 27.6277 47.8452L27.4331 48.6386H25.1579H22.8677V48.2643C22.8677 47.7105 22.1941 46.034 21.6702 45.2706C20.7122 43.8786 19.4249 42.8757 17.8233 42.247C16.506 41.7381 14.141 41.6632 12.8388 42.1123C10.1743 43.0104 8.25838 45.0162 7.52492 47.6955L7.25548 48.6386H4.98026H2.69008L2.52542 47.6955C1.89674 43.9833 1.92668 38.8042 2.5853 35.6159C3.66303 30.4518 5.78857 26.1708 8.94693 22.8478C10.7282 20.9617 12.9585 19.2104 13.213 19.4798C13.3177 19.5846 14.156 20.9917 15.084 22.5933C17.0749 26.0361 17.5538 26.6647 18.5717 27.2036C19.2453 27.5479 19.5297 27.6077 20.6374 27.6077C21.8947 27.6077 21.9696 27.5928 23.3317 26.8743C25.083 25.9612 27.2235 24.5093 29.379 22.7879C31.1603 21.3509 31.5345 20.8719 31.2351 20.3181C30.7411 19.375 30.2322 19.5098 28.1665 21.1862C25.2626 23.5064 21.9995 25.5271 20.8769 25.6768C20.0985 25.7816 19.1704 25.3774 18.7064 24.7338C18.3921 24.2698 15.9372 20.0486 14.6799 17.8034C13.7518 16.1418 13.677 15.5581 14.2608 14.5701C14.5751 14.0313 14.8445 13.8367 15.8774 13.3427C20.832 10.9927 26.6098 9.87002 31.4447 10.3191C36.1298 10.7532 39.2283 11.801 46.8174 15.5281C53.3736 18.7613 55.6937 19.2104 58.5228 17.7884C59.825 17.1298 61.0824 15.8275 61.741 14.4205C62.2948 13.2529 62.3098 13.208 62.3098 11.4417C62.3098 9.6904 62.2948 9.61555 61.7709 8.52285C61.0974 7.11581 60.2591 6.17279 59.0916 5.48423C56.8463 4.13707 54.122 4.09216 51.8767 5.34952L51.1582 5.75367L50.5296 5.11002L49.8859 4.46637L50.4098 4.01732C51.1732 3.3587 53.179 2.41568 54.3016 2.17619C55.6189 1.89178 57.1007 1.89178 58.388 2.17619Z" fill="white"/>
<path d="M44.4374 19.7193C43.9284 19.9887 43.3746 20.797 43.3746 21.2461C43.3746 21.3958 43.9883 21.785 44.9762 22.2789L46.5779 23.0723L46.9072 22.6681C47.3263 22.1442 47.446 21.5604 47.2514 20.9318C47.0569 20.2282 46.8024 19.9438 46.1737 19.6744C45.4552 19.375 45.0511 19.39 44.4374 19.7193Z" fill="white"/>
</svg>
