<svg width="50" height="60" viewBox="0 0 50 60" fill="none" xmlns="http://www.w3.org/2000/svg">
<g clip-path="url(#clip0_14_147)">
<path d="M16.2491 44.6896C16.2491 44.6896 14.0517 45.9674 17.8129 46.3999C22.3695 46.9197 24.6984 46.8451 29.7198 45.8948C29.7198 45.8948 31.04 46.7225 32.8837 47.4395C21.627 52.2639 7.40755 47.1601 16.2491 44.6896Z" fill="white"/>
<path d="M14.8736 38.3939C14.8736 38.3939 12.409 40.2183 16.173 40.6076C21.0406 41.1098 24.8845 41.1508 31.5361 39.87C31.5361 39.87 32.4561 40.8027 33.9028 41.3128C20.2927 45.2926 5.1336 41.6266 14.8736 38.3939Z" fill="white"/>
<path d="M26.4696 27.7146C29.2432 30.9079 25.7408 33.7816 25.7408 33.7816C25.7408 33.7816 32.7836 30.1459 29.5492 25.5931C26.5283 21.3474 24.2117 19.2379 36.7528 11.9645C36.7528 11.9645 17.0674 16.881 26.4696 27.7146Z" fill="white"/>
<path d="M41.3575 49.3461C41.3575 49.3461 42.9836 50.686 39.5666 51.7225C33.0691 53.6908 12.5232 54.2852 6.81566 51.8009C4.76394 50.9084 8.6115 49.6697 9.82179 49.4098C11.084 49.1361 11.8053 49.1871 11.8053 49.1871C9.5236 47.5797 -2.94279 52.3432 5.47301 53.7074C28.4241 57.4294 47.3107 52.0314 41.3575 49.3461Z" fill="white"/>
<path d="M17.3058 31.8711C17.3058 31.8711 6.85488 34.3533 13.6049 35.2547C16.4549 35.6363 22.1365 35.55 27.4286 35.1066C31.7537 34.7417 36.0966 33.966 36.0966 33.966C36.0966 33.966 34.5715 34.6191 33.4682 35.3725C22.8554 38.1637 2.35359 36.8652 8.25581 34.0102C13.2473 31.5973 17.3058 31.8711 17.3058 31.8711Z" fill="white"/>
<path d="M36.0535 42.3503C46.8419 36.7442 41.8538 31.3569 38.3721 32.0827C37.5188 32.2603 37.1383 32.4142 37.1383 32.4142C37.1383 32.4142 37.4551 31.9179 38.0601 31.7031C44.9479 29.2816 50.2451 38.8451 35.8367 42.6328C35.8367 42.633 36.0036 42.4837 36.0535 42.3503Z" fill="white"/>
<path d="M29.5492 0.219849C29.5492 0.219849 35.5239 6.19662 23.8824 15.3872C14.547 22.7596 21.7536 26.9632 23.8785 31.7659C18.4293 26.8494 14.4303 22.5214 17.1131 18.4933C21.0509 12.5804 31.9598 9.71358 29.5492 0.219849Z" fill="white"/>
<path d="M18.3659 57.5414C28.7214 58.2043 44.6234 57.1736 45 52.2737C45 52.2737 44.2761 54.1312 36.4418 55.6064C27.6032 57.2697 16.702 57.0755 10.2364 56.0095C10.2365 56.0093 11.56 57.1049 18.3659 57.5414Z" fill="white"/>
</g>
<defs>
<clipPath id="clip0_14_147">
<rect width="50" height="60" fill="white"/>
</clipPath>
</defs>
</svg>
