<svg width="28" height="59" viewBox="0 0 28 59" fill="none" xmlns="http://www.w3.org/2000/svg">
<g clip-path="url(#clip0_13_68)">
<path d="M18.3392 6.50879C15.924 3.64329 13.8772 0.777793 13.4269 0.163758C13.3859 0.122823 13.3041 0.122823 13.2631 0.163758C12.8538 0.777793 10.7661 3.64329 8.35085 6.50879C-12.2807 32.8304 11.5848 50.5965 11.5848 50.5965L11.7895 50.7193C11.9532 53.462 12.4035 57.3918 12.4035 57.3918H13.3041H14.2047C14.2047 57.3918 14.6549 53.462 14.8187 50.7193L15.0234 50.5556C15.1052 50.5965 38.9707 32.8304 18.3392 6.50879ZM13.345 50.1871C13.345 50.1871 12.2807 49.2866 11.9941 48.7953V48.7544L13.3041 20.0994C13.3041 20.0176 13.4269 20.0176 13.4269 20.0994L14.7368 48.7544V48.7953C14.4503 49.2866 13.345 50.1871 13.345 50.1871ZM58.0468 44.3333L48.0994 20.0176L48.0585 19.9357H40.3216V21.5731H41.5906C41.959 21.5731 42.3275 21.7369 42.614 21.9825C42.9006 22.269 43.0234 22.5965 43.0234 23.0059L42.8187 47.4854C42.8187 48.2632 42.2047 48.8772 41.4269 48.8772L40.1579 48.9181V50.5146H47.69V48.9181L46.9123 48.8772C46.1345 48.8363 45.5204 48.2222 45.5204 47.4854V24.4386L56.3684 50.5556C56.5321 50.924 56.9006 51.1696 57.269 51.1696C57.6783 51.1696 58.0468 50.924 58.1696 50.5556L68.7719 25.0527L68.9357 47.5263C68.9357 48.3041 68.3216 48.9181 67.5438 48.9591H66.7251V50.5556H75.5672V48.9591H74.3801C73.6023 48.9591 72.9883 48.3041 72.9883 47.5673L72.9064 23.0877C72.9064 22.31 73.5205 21.6959 74.2982 21.655L75.6082 21.614V19.9766H68.076L58.0468 44.3333ZM127.474 48.5088C127.228 48.2632 127.105 47.9357 127.105 47.5263V35.4912C127.105 33.1988 126.45 31.3977 125.099 30.1287C123.789 28.8597 121.947 28.2047 119.655 28.2047C116.462 28.2047 113.924 29.5146 112.164 32.0526C112.123 32.0936 112.082 32.1345 112 32.1345C111.918 32.1345 111.877 32.0936 111.877 32.0117L111.058 28.8187H109.667L106.105 30.8655V31.9708H107.006C107.415 31.9708 107.784 32.0936 108.029 32.2983C108.275 32.5029 108.398 32.8714 108.398 33.3216V47.4854C108.398 47.8947 108.275 48.2222 108.029 48.4678C107.784 48.7135 107.456 48.8363 107.047 48.8363H106.146V50.4737H114.333V48.8363H113.433C113.023 48.8363 112.696 48.7135 112.45 48.4678C112.205 48.2222 112.082 47.8947 112.082 47.4854V38.1111C112.082 36.924 112.368 35.7369 112.86 34.5497C113.392 33.4035 114.129 32.462 115.152 31.6842C116.175 30.9474 117.363 30.579 118.754 30.579C120.31 30.579 121.497 31.0702 122.234 32.0526C122.971 33.0351 123.339 34.3041 123.339 35.8597V47.4854C123.339 47.8947 123.216 48.2222 122.971 48.4678C122.725 48.7135 122.398 48.8363 121.988 48.8363H121.088V50.4737H129.275V48.8363H128.374C128.047 48.8772 127.719 48.7544 127.474 48.5088ZM202.263 21.7778C200.012 20.5907 197.474 19.9357 194.731 19.9357H184.088V21.5731H185.111C185.52 21.5731 185.848 21.7369 186.216 22.1053C186.544 22.4328 186.708 22.8012 186.708 23.2105V47.2398C186.708 47.6491 186.544 48.0176 186.216 48.345C185.889 48.6725 185.52 48.8772 185.111 48.8772H184.088V50.5146H194.731C197.474 50.5146 199.971 49.9006 202.263 48.6725C204.515 47.4854 206.357 45.6842 207.708 43.3918C209.058 41.0994 209.713 38.3567 209.713 35.2456C209.713 32.1345 209.018 29.3918 207.708 27.0994C206.357 24.807 204.556 23.0059 202.263 21.7778ZM205.456 35.2047C205.456 38.0702 204.965 40.4854 203.942 42.4094C202.959 44.3333 201.608 45.807 199.971 46.7486C198.333 47.6901 196.491 48.1404 194.567 48.1404H192.398C191.988 48.1404 191.661 47.9766 191.292 47.6082C190.965 47.2807 190.801 46.9123 190.801 46.5029V23.8655C190.801 23.4562 190.965 23.0877 191.292 22.7603C191.62 22.4328 191.988 22.2281 192.398 22.2281H194.567C196.532 22.2281 198.333 22.6784 199.971 23.6199C201.608 24.5614 202.959 25.9942 203.942 27.9591C204.924 29.924 205.456 32.3801 205.456 35.2047ZM234.889 36.8421C233.906 35.6959 231.982 34.7544 229.772 34.2222C232.842 32.6667 234.439 30.4971 234.439 27.7135C234.439 26.1988 234.029 24.848 233.211 23.6608C232.392 22.5146 231.246 21.5731 229.813 20.9181C228.339 20.2632 226.661 19.9357 224.737 19.9357H212.661V21.5731H213.602C214.012 21.5731 214.38 21.7369 214.708 22.1053C215.035 22.4328 215.24 22.8012 215.24 23.2105V47.2398C215.24 47.6491 215.076 48.0176 214.708 48.345C214.38 48.6725 214.012 48.8772 213.602 48.8772H212.538V50.5146H225.637C227.643 50.5146 229.485 50.1871 231.164 49.4912C232.842 48.8363 234.193 47.8538 235.135 46.5439C236.117 45.2339 236.608 43.6784 236.608 41.8363C236.69 39.8714 236.076 38.193 234.889 36.8421ZM219.906 47.6491C219.579 47.3216 219.374 46.9532 219.374 46.5439V35.7778H225.596C227.807 35.7778 229.485 36.3509 230.632 37.4562C231.778 38.5614 232.392 40.0351 232.392 41.7953C232.392 42.8597 232.105 43.924 231.614 44.8655C231.082 45.848 230.345 46.6257 229.322 47.2398C228.298 47.8538 227.07 48.1404 225.596 48.1404H221.012C220.602 48.1404 220.275 48.0176 219.906 47.6491ZM219.415 33.4854V23.9064C219.415 23.4971 219.579 23.1287 219.947 22.8012C220.275 22.4737 220.643 22.269 221.053 22.269H224C226.129 22.269 227.684 22.8012 228.667 23.8246C229.649 24.8889 230.14 26.1988 230.14 27.8772C230.14 29.5556 229.69 30.9474 228.749 31.9708C227.848 32.9942 226.456 33.4854 224.614 33.4854H219.415ZM96.2807 29.6374C94.5614 28.6959 92.6783 28.2047 90.5906 28.2047C88.5029 28.2047 86.5789 28.655 84.9006 29.6374C83.1813 30.579 81.8304 31.9298 80.8479 33.6491C79.8655 35.3684 79.3333 37.3743 79.3333 39.5848C79.3333 41.7953 79.8245 43.8012 80.8479 45.5205C81.8713 47.2398 83.1813 48.5907 84.9006 49.5322C86.6199 50.4737 88.5029 50.9649 90.5906 50.9649C92.6783 50.9649 94.6023 50.5146 96.2807 49.5322C98 48.5907 99.3509 47.2398 100.333 45.5205C101.316 43.8012 101.848 41.7953 101.848 39.5848C101.848 37.3743 101.357 35.3684 100.333 33.6491C99.3509 31.9298 98 30.579 96.2807 29.6374ZM97.9181 39.5848C97.9181 42.3275 97.2631 44.538 95.9123 46.1345C94.6023 47.731 92.8011 48.5497 90.5906 48.5497C88.3801 48.5497 86.5789 47.731 85.269 46.1345C83.9181 44.538 83.2631 42.3275 83.2631 39.5848C83.2631 36.8421 83.9181 34.6316 85.269 33.0351C86.5789 31.4386 88.3801 30.6199 90.5906 30.6199C92.8011 30.6199 94.6023 31.4386 95.9123 33.0351C97.2631 34.6316 97.9181 36.8421 97.9181 39.5848ZM174.959 29.6374C173.24 28.6959 171.357 28.2047 169.269 28.2047C167.222 28.2047 165.257 28.655 163.579 29.6374C161.86 30.579 160.509 31.9298 159.526 33.6491C158.544 35.3684 158.012 37.3743 158.012 39.5848C158.012 41.7953 158.503 43.8012 159.526 45.5205C160.509 47.2398 161.86 48.5907 163.579 49.5322C165.298 50.4737 167.181 50.9649 169.269 50.9649C171.316 50.9649 173.281 50.5146 174.959 49.5322C176.678 48.5907 178.029 47.2398 179.012 45.5205C179.994 43.8012 180.526 41.7953 180.526 39.5848C180.526 37.3743 180.035 35.3684 179.012 33.6491C178.029 31.9298 176.637 30.579 174.959 29.6374ZM176.596 39.5848C176.596 42.3275 175.942 44.538 174.591 46.1345C173.281 47.731 171.48 48.5497 169.269 48.5497C167.058 48.5497 165.257 47.731 163.947 46.1345C162.596 44.538 161.942 42.3275 161.942 39.5848C161.942 36.8421 162.596 34.6316 163.947 33.0351C165.257 31.4386 167.058 30.6199 169.269 30.6199C171.48 30.6199 173.281 31.4386 174.591 33.0351C175.901 34.6316 176.596 36.8421 176.596 39.5848ZM143.234 28.2047C141.433 28.2047 139.795 28.5731 138.322 29.3509C136.848 30.1287 135.702 31.1521 134.842 32.462C134.023 33.7719 133.573 35.2047 133.573 36.7602C133.573 38.1521 133.901 39.4211 134.515 40.5673C135.129 41.6725 135.988 42.5731 137.053 43.3509L133.86 47.6901C133.45 48.2222 133.409 48.9591 133.696 49.5322C134.023 50.1462 134.596 50.4737 135.251 50.4737H136.152C135.251 51.0877 134.556 51.7836 134.064 52.6433C133.491 53.5848 133.205 54.6082 133.205 55.6316C133.205 57.5556 134.064 59.1521 135.743 60.3392C137.38 61.5263 139.713 62.1404 142.661 62.1404C144.708 62.1404 146.632 61.8129 148.392 61.1579C150.193 60.5029 151.626 59.5614 152.69 58.2924C153.795 57.0234 154.327 55.5088 154.327 53.7895C154.327 51.9474 153.673 50.6784 152.076 49.4094C150.725 48.345 148.637 47.8129 146.018 47.8129H137.094C137.053 47.8129 137.053 47.7719 137.053 47.7719C137.053 47.7719 137.012 47.731 137.053 47.6901L139.386 44.579C140 44.8655 140.573 45.0292 141.105 45.1521C141.637 45.2749 142.251 45.3158 142.906 45.3158C144.789 45.3158 146.468 44.9474 147.942 44.1696C149.415 43.3918 150.602 42.3684 151.462 41.0585C152.322 39.7485 152.731 38.3158 152.731 36.7602C152.731 35.1228 151.912 32.0936 149.743 30.538C149.743 30.4971 149.784 30.4971 149.784 30.4971L154.573 31.0292V28.8187H146.877C145.772 28.4503 144.544 28.2047 143.234 28.2047ZM145.895 42.2047C145.035 42.655 144.134 42.9006 143.193 42.9006C141.678 42.9006 140.368 42.3684 139.263 41.3041C138.158 40.2398 137.585 38.7252 137.585 36.7602C137.585 34.7953 138.158 33.2398 139.263 32.2164C140.368 31.1521 141.719 30.6199 143.193 30.6199C144.134 30.6199 145.035 30.8246 145.895 31.3158C146.754 31.7661 147.45 32.462 147.982 33.3626C148.515 34.2632 148.801 35.4094 148.801 36.7602C148.801 38.1111 148.515 39.2573 147.982 40.1579C147.491 41.0585 146.754 41.7544 145.895 42.2047ZM139.836 50.4328H145.895C147.573 50.4328 148.637 50.7602 149.374 51.4971C150.07 52.193 150.439 53.1755 150.439 54.2807C150.439 55.9181 149.784 57.269 148.474 58.2515C147.164 59.2749 145.444 59.7661 143.275 59.7661C141.392 59.7661 139.836 59.3567 138.69 58.538C137.544 57.7193 136.971 56.4912 136.971 54.9357C136.971 53.9532 137.257 53.0526 137.789 52.2339C138.363 51.4152 139.018 50.8421 139.836 50.4328ZM241.234 50.1462C240.784 49.9006 240.456 49.5731 240.211 49.1228C239.965 48.6725 239.842 48.2222 239.842 47.731C239.842 47.2398 239.965 46.7486 240.211 46.3392C240.456 45.8889 240.825 45.5614 241.234 45.3158C241.684 45.0702 242.175 44.9474 242.708 44.9474C243.281 44.9474 243.731 45.0702 244.181 45.3158C244.632 45.5614 244.959 45.8889 245.205 46.3392C245.45 46.7895 245.573 47.2398 245.573 47.731C245.573 48.2222 245.45 48.7135 245.205 49.1228C244.959 49.5731 244.591 49.9006 244.181 50.1462C243.731 50.3918 243.24 50.5146 242.708 50.5146C242.175 50.5146 241.684 50.3918 241.234 50.1462ZM243.936 49.8187C244.304 49.6141 244.591 49.3275 244.795 48.9591C245 48.5907 245.123 48.1813 245.123 47.6901C245.123 47.2398 245 46.8304 244.795 46.4211C244.591 46.0526 244.304 45.7661 243.936 45.5614C243.567 45.3567 243.158 45.2339 242.708 45.2339C242.257 45.2339 241.848 45.3567 241.48 45.5614C241.111 45.7661 240.825 46.0526 240.62 46.4211C240.415 46.7895 240.292 47.1988 240.292 47.6901C240.292 48.1404 240.415 48.5497 240.62 48.9591C240.825 49.3275 241.111 49.6141 241.48 49.8187C241.848 50.0234 242.257 50.1462 242.708 50.1462C243.199 50.1462 243.608 50.0234 243.936 49.8187ZM241.52 49.0409V48.8363L241.561 48.7953H241.684C241.725 48.7953 241.766 48.7544 241.807 48.7544C241.848 48.7135 241.848 48.6725 241.848 48.6316V46.5848C241.848 46.5439 241.807 46.5029 241.807 46.462C241.766 46.4211 241.725 46.4211 241.684 46.4211H241.561L241.52 46.3801V46.2573L241.561 46.2164H242.708C243.035 46.2164 243.281 46.2983 243.485 46.4211C243.69 46.5848 243.772 46.7895 243.772 47.0351C243.772 47.2398 243.69 47.4445 243.567 47.5673C243.404 47.731 243.24 47.8129 242.994 47.8129L243.24 47.8947L243.731 48.7135C243.772 48.7953 243.813 48.7953 243.895 48.7953H244.018L244.058 48.8363V49.0409L244.018 49.0819H243.322L243.281 49.0409L242.585 47.8538H242.421V48.6316C242.421 48.6725 242.462 48.7135 242.462 48.7544C242.503 48.7953 242.544 48.7953 242.585 48.7953H242.708L242.749 48.8363V49.0409L242.708 49.0819H241.52V49.0409ZM242.667 47.6082C242.83 47.6082 242.994 47.5673 243.076 47.4445C243.158 47.3626 243.24 47.1988 243.24 47.0351C243.24 46.8714 243.199 46.7076 243.117 46.6257C243.035 46.5029 242.912 46.462 242.749 46.462H242.667C242.626 46.462 242.585 46.5029 242.544 46.5029C242.503 46.5439 242.503 46.5848 242.503 46.6257V47.6082H242.667Z" fill="white"/>
</g>
<defs>
<clipPath id="clip0_13_68">
<rect width="28" height="59" fill="white"/>
</clipPath>
</defs>
</svg>
