<svg width="54" height="54" viewBox="0 0 54 54" fill="none" xmlns="http://www.w3.org/2000/svg">
<path d="M9.64 31.78C9.98667 31.78 10.26 31.8933 10.46 32.12C10.6733 32.3333 10.78 32.6133 10.78 32.96C10.78 33.3067 10.6733 33.5933 10.46 33.82C10.26 34.0333 9.98667 34.14 9.64 34.14C9.30667 34.14 9.03333 34.0333 8.82 33.82C8.60667 33.5933 8.5 33.3067 8.5 32.96C8.5 32.6133 8.60667 32.3333 8.82 32.12C9.03333 31.8933 9.30667 31.78 9.64 31.78ZM12.8013 21.4H14.7013L19.9813 28.94C20.2213 29.2867 20.4479 29.6333 20.6613 29.98C20.8746 30.3267 21.0546 30.64 21.2013 30.92H21.2413C21.1746 29.9333 21.1413 28.9533 21.1413 27.98C21.1413 26.9933 21.1413 26 21.1413 25V21.4H23.2013V34H21.3013L16.1613 26.7C15.9079 26.34 15.6613 25.9533 15.4213 25.54C15.1813 25.1133 14.9746 24.7333 14.8013 24.4H14.7613C14.8279 25.44 14.8613 26.4733 14.8613 27.5C14.8613 28.5133 14.8613 29.5333 14.8613 30.56V34H12.8013V21.4ZM26.2388 21.4H34.0388V23.12H28.3788V26.6H33.5188V28.3H28.3788V32.28H34.0988V34H26.2388V21.4ZM44.7159 21.4V23.16H40.9159V34H38.7759V23.16H35.0359V21.4H44.7159Z" fill="white"/>
<circle cx="27" cy="27" r="26.25" stroke="white" stroke-width="1.5"/>
</svg>
