<svg width="55" height="57" viewBox="0 0 55 57" fill="none" xmlns="http://www.w3.org/2000/svg">
<path d="M54.7495 34.5208C54.1406 33.8164 53.1005 34.009 52.2962 34.1686C50.3631 34.5132 48.2599 34.9136 46.3876 34.1103C49.7314 28.8394 52.3622 23.0845 53.8336 17.0103C54.3689 14.7018 54.7825 12.34 54.7038 9.96307C54.6455 8.63268 54.4603 7.21613 53.6459 6.1138C51.6316 3.46062 48.7115 1.52712 45.4921 0.662997C41.471 -0.426657 37.1582 -0.102295 33.203 1.11913C32.8758 1.18502 32.5536 1.03804 32.2339 0.997496C28.6441 0.270215 24.6864 0.556566 21.5736 2.63198C17.8366 1.28892 13.8206 0.478008 9.84263 0.893598C6.88453 1.20022 3.91374 2.57369 2.21651 5.09003C0.0702341 8.22976 -0.221516 12.2387 0.120974 15.9182C0.811029 20.8039 2.0034 25.6136 3.52051 30.3041C4.52007 33.2285 5.62112 36.1756 7.39953 38.7299C8.30269 39.9843 9.50268 41.2488 11.1187 41.4465C12.5547 41.6213 13.8536 40.7319 14.7339 39.6777C16.2561 37.8582 17.8214 36.0717 19.4451 34.3435C20.5055 34.8629 21.6573 35.162 22.8344 35.2507C22.1977 36.0058 21.6725 36.9916 20.6577 37.2881C19.2903 37.8151 17.6895 37.7442 16.4844 38.6539C15.7893 39.1506 15.7563 40.2327 16.3804 40.8028C17.5093 41.8975 19.1736 42.1332 20.6755 42.2599C22.804 42.4221 24.9553 41.7075 26.5714 40.3138C26.5612 43.6942 26.5765 47.0848 26.957 50.4475C27.1473 52.4165 27.9972 54.3779 29.4965 55.7032C30.9096 56.9348 32.924 57.1907 34.7176 56.879C36.4783 56.5445 38.2871 56.0174 39.6622 54.8163C41.1234 53.529 41.7475 51.5853 42.0367 49.7203C42.5619 46.3778 42.9602 43.0201 43.3407 39.6625C47.1031 40.296 51.3601 39.5763 54.1711 36.8319C54.7723 36.2668 55.3431 35.2887 54.7495 34.5208ZM46.4003 2.73334C48.6582 3.58986 50.665 5.07736 52.1719 6.96019C52.8899 7.85978 52.9812 9.06854 53.0269 10.1734C53.0599 12.8088 52.5271 15.4113 51.8497 17.9454C50.5533 22.636 48.5847 27.1315 46.1111 31.3178C45.8676 31.7308 45.6012 32.1287 45.3069 32.5062C45.2841 32.3922 45.2384 32.1591 45.2156 32.0425C45.5225 31.2367 45.9716 30.4764 46.1466 29.6199C46.7657 27.205 46.243 24.719 46.0198 22.2888C45.7864 19.9955 46.5703 17.763 46.55 15.4747C46.6388 14.3546 46.1948 13.2954 45.7636 12.2894C44.2033 8.805 41.7222 5.70582 38.5383 3.57719C37.762 3.04503 36.8943 2.67252 36.1205 2.13783C39.5049 1.41308 43.1353 1.50431 46.3978 2.73081L46.4003 2.73334ZM44.3378 22.2939C44.5357 25.0079 45.3247 27.9221 44.0435 30.4967C42.326 27.0833 40.1061 23.8245 39.3323 20.0234C39.1142 18.8146 39.0583 17.284 40.134 16.4427C41.4989 15.4747 43.2824 15.6926 44.8604 15.7889C44.7919 17.9657 44.1221 20.1019 44.3403 22.2939H44.3378ZM13.6329 38.3726C13.0164 39.0974 12.1843 39.9615 11.1339 39.7461C9.90606 39.3913 9.12467 38.2713 8.43969 37.2653C6.59024 34.3105 5.47651 30.9731 4.45411 27.6611C3.30994 23.7409 2.34589 19.7573 1.7903 15.7078C1.51377 12.6264 1.68628 9.32195 3.26428 6.57754C4.4465 4.49959 6.65113 3.17427 8.96738 2.74094C12.6764 2.02887 16.4793 2.78402 20.0387 3.86861C18.4683 5.59178 17.2455 7.62158 16.5326 9.84397C15.561 12.8114 15.117 15.9688 15.3504 19.0883C15.4848 21.2853 15.4265 23.4925 15.1195 25.6718C14.7339 28.5176 15.8781 31.4445 17.9939 33.3653C16.5529 35.0479 15.0257 36.652 13.6303 38.3752L13.6329 38.3726ZM16.8802 28.178C16.5174 26.5664 16.9918 24.9446 17.0451 23.3303C17.1694 21.5033 17.04 19.6737 17.0045 17.8466C18.7144 16.7417 20.7135 15.8776 22.7862 15.9967C23.8594 16.0423 24.8488 16.8 25.1076 17.8567C26.0488 21.5996 26.3405 25.7656 24.5367 29.3108C23.9076 30.6792 23.3977 32.0957 22.9588 33.5326C19.9601 33.563 17.4104 31.0289 16.8802 28.178ZM26.2111 38.1978C24.3287 40.7445 20.5613 41.2311 17.8392 39.8449C19.1812 39.2241 20.7516 39.2722 22.048 38.507C23.3012 37.8329 23.7985 36.3504 24.9706 35.5877C26.2467 35.4078 27.1777 37.3007 26.2137 38.1953L26.2111 38.1978ZM42.3564 35.2228C41.641 36.3733 41.8921 37.7771 41.7171 39.0543C41.3061 42.635 40.9027 46.2207 40.3192 49.7785C40.0427 51.484 39.3171 53.2958 37.7062 54.1448C36.0546 54.9835 34.1366 55.5106 32.2796 55.2243C30.5164 54.9151 29.4052 53.273 28.9054 51.674C28.5401 50.3335 28.502 48.9322 28.398 47.5511C28.2204 44.2188 28.2179 40.8788 28.3041 37.544C28.3777 36.2415 27.708 34.8857 26.5435 34.2522C25.9803 33.9355 25.3207 33.8924 24.6915 33.8417C25.1862 31.3913 26.6805 29.2753 27.193 26.8274C27.8576 23.7991 27.4898 20.6468 26.8099 17.6565C26.4775 16.164 25.341 14.8437 23.8289 14.4813C21.5 13.896 19.1508 14.8057 17.0679 15.7788C17.3318 12.3983 18.2375 8.93677 20.3102 6.19236C21.8349 4.14989 24.1993 2.78656 26.7236 2.45966C30.8893 1.93004 35.263 3.07544 38.5738 5.67794C41.3086 7.83698 43.4701 10.7613 44.6346 14.0505C42.6989 13.9821 40.5044 13.9036 38.9391 15.2466C37.5184 16.4427 37.3358 18.4827 37.6554 20.1957C38.3962 24.2705 40.8038 27.7346 42.5797 31.3989C43.0515 32.2579 43.6858 33.008 44.2896 33.7784C43.5716 34.1407 42.7699 34.4879 42.3615 35.2253L42.3564 35.2228ZM47.339 38.104C46.0604 38.2561 44.731 38.3017 43.498 37.8785C43.5031 37.1816 43.4651 36.3555 44.0257 35.836C44.4697 35.5091 45.1014 35.2076 45.6139 35.5649C47.7957 36.7128 50.3326 36.1528 52.654 35.8715C51.2358 37.25 49.2722 37.8937 47.339 38.104ZM40.6363 16.9521C40.1822 17.3246 40.6719 17.8821 41.0626 18.0569C42.0088 18.6119 43.3052 17.8365 43.3357 16.7569C42.4807 16.3591 41.4101 16.3996 40.6363 16.9521ZM23.8873 18.6752C24.2907 18.4472 24.7169 17.8213 24.2501 17.4437C23.5854 16.9039 22.6188 16.8 21.8095 17.018C21.5482 17.1092 21.2742 17.2866 21.3275 17.6059C21.5152 18.6904 22.9689 19.3493 23.8847 18.6752H23.8873Z" fill="white"/>
</svg>
