<svg width="62" height="56" viewBox="0 0 62 56" fill="none" xmlns="http://www.w3.org/2000/svg">
<g clip-path="url(#clip0_12_21)">
<g clip-path="url(#clip1_12_21)">
<path d="M31 33.2899C34.0716 33.2899 36.5617 30.832 36.5617 27.8001C36.5617 24.7682 34.0716 22.3103 31 22.3103C27.9283 22.3103 25.4382 24.7682 25.4382 27.8001C25.4382 30.832 27.9283 33.2899 31 33.2899Z" fill="white"/>
<path fill-rule="evenodd" clip-rule="evenodd" d="M4.37286 24.3746C3.02341 25.577 2.45651 26.7367 2.45651 27.8001C2.45651 28.8634 3.02341 30.0231 4.37286 31.2256C5.72217 32.4278 7.74765 33.5694 10.3612 34.5544C15.5793 36.521 22.8758 37.7642 31 37.7642C39.1241 37.7642 46.4207 36.521 51.6388 34.5544C54.2523 33.5694 56.2778 32.4278 57.6271 31.2256C58.9766 30.0231 59.5435 28.8634 59.5435 27.8001C59.5435 26.7367 58.9766 25.577 57.6271 24.3746C56.2778 23.1723 54.2523 22.0307 51.6388 21.0458C46.4207 19.0792 39.1241 17.8359 31 17.8359C22.8758 17.8359 15.5793 19.0792 10.3612 21.0458C7.74765 22.0307 5.72217 23.1723 4.37286 24.3746ZM9.43375 18.6482C15.0168 16.5441 22.642 15.2695 31 15.2695C39.3579 15.2695 46.9831 16.5441 52.5662 18.6482C55.3533 19.6986 57.6983 20.9807 59.3693 22.4696C61.0402 23.9584 62.1435 25.7575 62.1435 27.8001C62.1435 29.8426 61.0402 31.6417 59.3693 33.1305C57.6983 34.6195 55.3533 35.9015 52.5662 36.9519C46.9831 39.0561 39.3579 40.3306 31 40.3306C22.642 40.3306 15.0168 39.0561 9.43375 36.9519C6.64666 35.9015 4.30167 34.6195 2.63065 33.1305C0.959777 31.6417 -0.143494 29.8426 -0.143494 27.8001C-0.143494 25.7575 0.959777 23.9584 2.63065 22.4696C4.30167 20.9807 6.64666 19.6986 9.43375 18.6482Z" fill="white"/>
<path fill-rule="evenodd" clip-rule="evenodd" d="M20.6919 3.32591C18.9622 2.77358 17.6612 2.86884 16.7282 3.40052C15.7953 3.93219 15.0612 4.99666 14.681 6.7514C14.3008 8.50596 14.3119 10.8082 14.7545 13.5347C15.6381 18.9786 18.1956 25.8375 22.2576 32.7822C26.3197 39.7268 31.0588 45.3425 35.3933 48.8197C37.5643 50.5613 39.5786 51.722 41.3081 52.2742C43.0378 52.8266 44.3388 52.7313 45.2717 52.1996C46.2047 51.6679 46.9387 50.6035 47.319 48.8487C47.6992 47.0942 47.688 44.792 47.2455 42.0654C46.3618 36.6216 43.8044 29.7627 39.7423 22.818C35.6802 15.8733 30.9411 10.2577 26.6066 6.78043C24.4357 5.03883 22.4214 3.87819 20.6919 3.32591ZM28.2465 4.78888C32.8842 8.50936 37.815 14.3903 41.994 21.5348C46.173 28.6794 48.8673 35.8348 49.8127 41.6594C50.2847 44.5671 50.3323 47.2126 49.8615 49.3855C49.3907 51.5582 48.3638 53.4009 46.5717 54.4222C44.7797 55.4434 42.6495 55.3999 40.5078 54.716C38.3659 54.032 36.0686 52.6685 33.7535 50.8113C29.1158 47.0908 24.1849 41.2099 20.006 34.0653C15.827 26.9208 13.1327 19.7654 12.1872 13.9407C11.7153 11.0331 11.6676 8.3875 12.1385 6.21462C12.6093 4.04191 13.6362 2.19925 15.4282 1.17799C17.2203 0.156726 19.3505 0.200258 21.4921 0.884148C23.634 1.5681 25.9314 2.93162 28.2465 4.78888Z" fill="white"/>
<path fill-rule="evenodd" clip-rule="evenodd" d="M47.319 6.75138C46.9388 4.99664 46.2047 3.93218 45.2717 3.4005C44.3388 2.86883 43.0378 2.77357 41.3081 3.3259C39.5786 3.87817 37.5643 5.03881 35.3933 6.78042C31.0588 10.2577 26.3197 15.8733 22.2577 22.818C18.1956 29.7627 15.6381 36.6215 14.7545 42.0654C14.3119 44.792 14.3008 47.0942 14.681 48.8487C15.0612 50.6035 15.7953 51.6679 16.7283 52.1996C17.6612 52.7313 18.9622 52.8265 20.6919 52.2742C22.4214 51.7219 24.4357 50.5613 26.6067 48.8197C30.9412 45.3424 35.6803 39.7268 39.7423 32.7821C43.8044 25.8375 46.3619 18.9786 47.2455 13.5347C47.688 10.8081 47.6992 8.50594 47.319 6.75138ZM49.8127 13.9407C48.8673 19.7653 46.173 26.9208 41.994 34.0653C37.815 41.2099 32.8842 47.0908 28.2465 50.8112C25.9314 52.6685 23.634 54.032 21.4922 54.716C19.3505 55.3999 17.2203 55.4434 15.4283 54.4221C13.6362 53.4009 12.6093 51.5582 12.1385 49.3855C11.6676 47.2126 11.7153 44.567 12.1873 41.6594C13.1327 35.8348 15.827 28.6793 20.006 21.5348C24.185 14.3902 29.1158 8.50934 33.7535 4.78887C36.0686 2.93161 38.366 1.56808 40.5078 0.884133C42.6495 0.200243 44.7797 0.156711 46.5717 1.17797C48.3638 2.19923 49.3907 4.0419 49.8615 6.2146C50.3323 8.38749 50.2847 11.0331 49.8127 13.9407Z" fill="white"/>
</g>
</g>
<defs>
<clipPath id="clip0_12_21">
<rect width="62" height="56" fill="white"/>
</clipPath>
<clipPath id="clip1_12_21">
<rect width="62.4" height="54.8" fill="white" transform="translate(-0.200012 0.400024)"/>
</clipPath>
</defs>
</svg>
