<svg width="63" height="54" viewBox="0 0 63 54" fill="none" xmlns="http://www.w3.org/2000/svg">
<g clip-path="url(#clip0_13_136)">
<path d="M92.758 16.699C92.758 18.0372 91.6565 19.232 90.2194 19.232C89.1181 19.232 88.1605 19.5187 87.3464 20.1401C86.4365 20.7141 85.7176 21.5262 85.1437 22.4342C83.9942 23.9637 83.4205 25.7796 83.1804 26.4481V35.5284C83.1804 36.9144 81.9838 38.0619 80.5468 38.0619C79.1583 38.0619 78.0088 36.9146 78.0088 35.5284V16.699C78.0088 15.3129 79.1579 14.2138 80.5468 14.2138C81.9842 14.2138 83.1804 15.3137 83.1804 16.699V17.0338C83.4678 16.699 83.8506 16.3171 84.1863 16.0778C85.7669 15.0269 87.8258 14.1662 90.22 14.2138C91.6565 14.2138 92.758 15.3135 92.758 16.699ZM91.3517 26.1135C91.3998 19.614 96.476 14.166 103.036 14.166C109.261 14.166 114.194 18.8015 114.577 25.2528C114.577 25.301 114.577 25.3966 114.577 25.4917C114.577 25.5876 114.577 25.8259 114.53 25.9218C114.386 27.0693 113.381 27.834 112.039 27.834H96.8111C97.0503 28.9336 97.5769 30.1756 98.4392 30.9879C99.4449 32.1349 101.361 32.9942 103.036 33.1377C104.76 33.2804 106.819 32.8515 108.017 31.9434C109.022 30.8913 110.985 31.0356 111.608 31.7993C112.231 32.4693 112.709 33.903 111.608 34.9058C109.261 37.0558 106.436 38.0598 103.036 38.0598C96.476 38.0137 91.3998 32.613 91.3517 26.1135ZM96.5716 23.7722H110.124C109.645 21.8606 107.203 19.041 103.036 18.7064C98.9664 18.897 96.9548 21.813 96.5716 23.7722ZM138.976 35.4807C138.976 36.867 137.827 38.0618 136.39 38.0618C135.097 38.0618 134.091 37.154 133.852 36.0069C132.032 37.2489 129.733 38.0618 127.339 38.0618C120.874 38.0618 115.702 32.6135 115.702 26.1619C115.702 19.6144 120.875 14.1664 127.339 14.1664C129.686 14.1664 131.984 14.9307 133.756 16.173V7.1888C133.756 5.80273 134.905 4.60817 136.389 4.60817C137.826 4.60817 138.976 5.80273 138.976 7.1888V26.1137C138.976 26.1137 138.976 26.1137 138.976 26.1619V35.4807H138.976ZM127.34 19.3752C125.615 19.3752 124.035 20.0919 122.839 21.3345C121.642 22.5294 120.923 24.2493 120.923 26.1613C120.923 27.9776 121.641 29.6975 122.839 30.8929C124.035 32.1354 125.615 32.8521 127.34 32.8521C129.111 32.8521 130.644 32.1354 131.841 30.8929C133.038 29.6983 133.757 27.9778 133.757 26.1613C133.757 24.2495 133.038 22.5294 131.841 21.3345C130.644 20.0919 129.111 19.3752 127.34 19.3752ZM148.087 8.19262C148.087 9.62651 146.985 10.8209 145.5 10.8209C144.064 10.8209 142.915 9.62651 142.915 8.19262V7.1888C142.915 5.7551 144.064 4.60817 145.5 4.60817C146.985 4.60817 148.087 5.7551 148.087 7.1888V8.19262ZM148.087 16.8426V35.4807C148.087 36.9146 146.985 38.0618 145.5 38.0618C144.064 38.0618 142.915 36.9146 142.915 35.4807V16.8426C142.915 15.3131 144.064 14.2138 145.5 14.2138C146.986 14.2138 148.087 15.3135 148.087 16.8426ZM151.379 31.2271C152.241 30.0807 153.917 29.9373 154.97 30.8447C156.215 31.8971 158.371 32.995 160.238 32.9478C161.531 32.9478 162.728 32.5179 163.495 32.04C164.165 31.4662 164.356 30.9893 164.356 30.6057C164.356 30.3675 164.308 30.2721 164.213 30.1276C164.165 29.9841 163.974 29.7932 163.59 29.5546C162.919 29.0765 161.482 28.5504 159.759 28.2164H159.711C158.226 27.9306 156.79 27.5472 155.545 26.9732C154.252 26.3526 153.102 25.4923 152.24 24.2021C151.714 23.3419 151.426 22.2903 151.426 21.1916C151.426 18.9932 152.671 17.1292 154.251 15.9343C155.928 14.7876 157.939 14.1662 160.142 14.1662C163.446 14.1662 165.793 15.7434 167.325 16.7944C168.474 17.5591 168.81 19.1365 168.091 20.3303C167.325 21.4776 165.745 21.8124 164.548 20.9997C163.015 19.9964 161.675 19.2314 160.142 19.2314C158.945 19.2314 157.892 19.6136 157.269 20.0915C156.646 20.522 156.503 20.952 156.503 21.191C156.503 21.3817 156.503 21.4298 156.598 21.573C156.646 21.6683 156.789 21.8594 157.125 22.0509C157.748 22.4808 158.993 22.9109 160.621 23.1977L160.669 23.2459H160.717C162.298 23.5321 163.782 23.9625 165.171 24.6316C166.463 25.2053 167.757 26.1131 168.571 27.4509C169.146 28.4066 169.481 29.5056 169.481 30.6051C169.481 32.947 168.188 34.9064 166.463 36.1482C164.74 37.3428 162.584 38.0606 160.238 38.0606C156.503 38.0128 153.63 36.2921 151.715 34.7629C150.66 33.9038 150.517 32.2789 151.379 31.2271ZM63.0313 33.0951C63.0334 33.0963 63.0357 33.097 63.0382 33.098C63.0382 33.098 63.0369 38.7769 63.0369 39.3664C63.0369 39.9949 62.2803 40.6848 60.5685 41.5754C57.2047 43.3252 39.7773 50.476 36.0673 52.4057C32.3572 54.3366 30.296 54.3177 27.3653 52.9195C24.4345 51.5209 5.88911 44.0451 2.54857 42.4521C0.878873 41.6553 0.00093116 40.9837 0.00093116 40.3485C0.00093116 39.7157 0.00093116 33.994 0.00093116 33.9898C0.0270201 34.6229 0.879259 35.2956 2.54857 36.0915C5.88911 37.6841 24.4343 45.161 27.3653 46.5585C30.2962 47.9571 32.3574 47.976 36.0673 46.0451C39.7773 44.1152 57.2045 36.9638 60.5685 35.2144C62.2003 34.3656 63.004 33.6968 63.0313 33.0951ZM60.5683 24.8454C57.2043 26.5954 39.7771 33.7464 36.0671 35.6773C32.357 37.6072 30.2958 37.5881 27.3652 36.1899C24.4341 34.7921 5.88892 27.3154 2.54837 25.7224C0.879066 24.9266 0.0268269 24.2543 0.000737909 23.621C0.000737909 23.6337 0.000737909 29.3475 0.000737909 29.9808C0.000737909 30.6157 0.87868 31.2867 2.54837 32.0834C5.88892 33.6768 24.4341 41.1529 27.3652 42.5503C30.296 43.9489 32.3572 43.9678 36.0671 42.0381C39.7771 40.1072 57.2042 32.9568 60.5683 31.2065C62.2803 30.3156 63.0367 29.6262 63.0367 28.9977C63.0367 28.4075 63.038 22.7285 63.038 22.7285C63.0355 22.7279 63.0334 22.7269 63.0313 22.7259C63.0044 23.3271 62.2007 23.9963 60.5683 24.8454ZM63.038 11.9759C63.038 11.9759 63.0367 17.6552 63.0367 18.2447C63.0367 18.8727 62.2801 19.5621 60.5683 20.4529C57.2043 22.2027 39.7771 29.3541 36.0671 31.2849C32.357 33.2151 30.2958 33.196 27.3652 31.7976C24.4341 30.3999 5.88892 22.923 2.54837 21.33C0.87868 20.5335 0.000737909 19.862 0.000737909 19.2273C0.000737909 18.5938 0.000737909 12.8758 0.000737909 12.8679C-0.025351 12.2339 0.777416 11.6382 2.41947 10.9968C5.70088 9.71426 24.1444 2.4933 28.0427 1.0976C31.9404 -0.297919 33.2926 -0.348447 36.6095 0.864624C39.9269 2.07731 57.2498 8.95768 60.5277 10.1565C62.2157 10.7732 63.061 11.335 63.0317 11.9732C63.0334 11.9742 63.0361 11.9751 63.038 11.9759ZM24.8096 7.62832L31.1164 8.19377L33.0931 11.4706L34.3168 8.53301L39.7765 7.96755L35.5407 6.38535L36.6658 3.69731L32.5091 5.05445L28.1043 3.33397L29.5162 5.93349L24.8096 7.62832ZM18.6341 15.6413C22.9459 15.6413 26.4416 14.289 26.4416 12.621C26.4416 10.9532 22.9461 9.60086 18.6339 9.60086C14.322 9.60086 10.8267 10.9532 10.8267 12.621C10.8263 14.289 14.322 15.6413 18.6341 15.6413ZM37.179 15.7565L22.5708 17.9944L32.7681 22.2139L37.179 15.7565ZM54.8789 12.1815L46.2348 8.76965L36.6692 12.5454L45.3041 15.9538L46.2398 15.5854L54.8789 12.1815Z" fill="white"/>
</g>
<defs>
<clipPath id="clip0_13_136">
<rect width="63" height="54" fill="white"/>
</clipPath>
</defs>
</svg>
