<svg width="94" height="25" viewBox="0 0 94 25" fill="none" xmlns="http://www.w3.org/2000/svg">
<path d="M13.6954 20.0049H6.74802V5.19818H13.3212C17.048 5.19818 18.6429 6.79858 18.6429 9.22071C18.6429 10.8919 17.5173 12.0676 15.9223 12.3261C17.7044 12.6554 19.0877 13.8311 19.0877 15.9485C19.0877 18.5122 17.143 20.0049 13.6954 20.0049ZM9.61899 11.3597H13.1341C14.8917 11.3597 15.6431 10.5841 15.6431 9.47924C15.6431 8.37435 14.8917 7.57415 13.1341 7.57415H9.61899V11.3597ZM9.61899 13.5941V17.6412H13.3672C15.2076 17.6412 16.0879 16.8657 16.0879 15.6408C16.0879 14.4158 15.1953 13.5941 13.3672 13.5941H9.61899Z" fill="white"/>
<path d="M29.5932 17.4997C29.5932 18.0414 29.8754 18.2999 30.3201 18.2999C30.6215 18.2941 30.9179 18.2216 31.1882 18.0875V19.5925C30.6403 20.0424 29.9479 20.2765 29.2404 20.2511C28.0687 20.2511 27.1792 19.5002 26.9676 18.2506C26.3817 19.4817 25.0689 20.2727 23.3574 20.2727C21.3882 20.2727 20.0754 19.217 20.0754 17.4289C20.0754 15.453 21.609 14.6313 24.0138 14.182L26.851 13.6434V13.3356C26.851 12.1845 26.2376 11.489 25.0474 11.489C23.8573 11.489 23.2408 12.1845 23.0046 13.194L20.4496 12.9601C20.8023 10.8427 22.4219 9.3623 25.1517 9.3623C27.8233 9.3623 29.5809 10.6303 29.5809 13.3633L29.5932 17.4997ZM26.851 15.1699L24.9064 15.57C23.615 15.8285 22.8206 16.1578 22.8206 17.1088C22.8206 17.8382 23.3359 18.3768 24.25 18.3768C25.7253 18.3768 26.851 17.2719 26.851 15.5084V15.1699Z" fill="white"/>
<path d="M52.6346 16.5579C52.1193 18.9093 50.3035 20.3127 47.6411 20.3127C44.4542 20.3127 42.1568 18.266 42.1568 14.9975C42.1568 11.729 44.4756 9.3623 47.5705 9.3623C50.9445 9.3623 52.6806 11.7137 52.6806 14.5359V15.4284H44.9235C45.0155 17.1242 46.2117 18.1583 47.7362 18.1583C49.1195 18.1583 49.963 17.5428 50.3618 16.3117L52.6346 16.5579ZM49.9385 13.948C49.8925 12.6062 49.1195 11.4305 47.5491 11.4305C45.9786 11.4305 45.1351 12.56 44.9695 13.948H49.9385Z" fill="white"/>
<path d="M61.453 12.4184C60.9439 12.1131 60.3591 11.9584 59.766 11.9722C58.3121 11.9722 57.3275 13.0063 57.3275 14.8898V20.0049H54.5148V9.64236H57.3275V11.6213C57.7018 10.4426 58.7814 9.36229 60.2108 9.36229C60.7249 9.3366 61.2326 9.48511 61.6524 9.78393L61.453 12.4184Z" fill="white"/>
<path d="M62.8487 5.19818H65.7319V7.94963H62.8487V5.19818ZM65.7074 20.0049H62.8947V9.64235H65.7074V20.0049Z" fill="white"/>
<path d="M70.8359 20.0049H68.0232V9.64237H70.8359V11.3382C71.3512 10.1625 72.6762 9.3623 74.2099 9.3623C76.9704 9.3623 77.9857 11.2428 77.9857 13.548V20.0049H75.173V14.1112C75.173 12.5138 74.5381 11.5967 73.1547 11.5967C71.7254 11.5967 70.8359 12.7262 70.8359 14.4651V20.0049Z" fill="white"/>
<path d="M89.1629 17.4997C89.1629 18.0413 89.4451 18.2999 89.8899 18.2999C90.1913 18.2941 90.4877 18.2216 90.7579 18.0875V19.5925C90.2101 20.0424 89.5176 20.2765 88.8102 20.2511C87.6385 20.2511 86.749 19.5002 86.5373 18.2506C85.9515 19.4817 84.6387 20.2727 82.9302 20.2727C80.961 20.2727 79.6482 19.217 79.6482 17.4289C79.6482 15.453 81.1818 14.6313 83.5835 14.1819L86.4208 13.6433V13.3356C86.4208 12.1845 85.8073 11.489 84.6172 11.489C83.4271 11.489 82.8106 12.1938 82.5774 13.2032L80.0224 12.9693C80.3721 10.8519 81.9916 9.37152 84.7337 9.37152C87.4054 9.37152 89.1629 10.6395 89.1629 13.3725V17.4997ZM86.4208 15.1699L84.4761 15.57C83.1848 15.8285 82.3903 16.1578 82.3903 17.1088C82.3903 17.8382 82.9056 18.3768 83.8197 18.3768C85.2951 18.3768 86.4208 17.2719 86.4208 15.5084V15.1699Z" fill="white"/>
<path d="M32.412 9.05147V4.7735H35.9823V10.421L32.412 9.05147Z" fill="white"/>
<path d="M32.412 10.3903L34.8566 11.329L32.412 12.2646V10.3903Z" fill="white"/>
<path d="M35.9823 12.2369V14.3082L34.2462 20.0173H32.412V13.6064L35.9823 12.2369Z" fill="white"/>
<path d="M40.7887 9.05147V4.7735H37.2184V10.421L40.7887 9.05147Z" fill="white"/>
<path d="M40.7888 10.3903L38.3441 11.329L40.7888 12.2646V10.3903Z" fill="white"/>
<path d="M37.2184 12.2369V14.3082L38.9545 20.0173H40.7887V13.6064L37.2184 12.2369Z" fill="white"/>
</svg>
