<svg width="30" height="30" viewBox="0 0 30 30" fill="none" xmlns="http://www.w3.org/2000/svg">
<mask id="path-1-inside-1_9_280" fill="white">
<path fill-rule="evenodd" clip-rule="evenodd" d="M15.7266 0.679688L27.0469 7.19531C27.2578 7.33594 27.4688 7.54688 27.6094 7.82813L27.5277 7.87552C27.6143 8.06722 27.6328 8.27336 27.6328 8.46096V21.5156C27.6328 21.961 27.3516 22.5469 26.9531 22.7813L15.7031 29.3203C15.5156 29.4141 15.2578 29.4844 14.9766 29.4844C14.6953 29.4844 14.4375 29.4375 14.25 29.3203L2.95313 22.7813C2.78906 22.6875 2.625 22.5235 2.50781 22.336L2.54651 22.3135C2.38528 22.0659 2.34375 21.7817 2.34375 21.5391V8.48438C2.34375 8.03906 2.625 7.45312 3.02344 7.21875L14.2734 0.679688C14.4609 0.585938 14.7188 0.515625 15 0.515625C15.2812 0.515625 15.5391 0.5625 15.7266 0.679688Z"/>
</mask>
<path d="M27.0469 7.19531L27.8789 5.94724L27.8379 5.91988L27.7951 5.89527L27.0469 7.19531ZM15.7266 0.679688L14.9316 1.95168L14.9547 1.96613L14.9783 1.97973L15.7266 0.679688ZM27.6094 7.82813L28.3625 9.12538L29.5813 8.41783L28.951 7.15731L27.6094 7.82813ZM27.5277 7.87552L26.7747 6.57827L25.6033 7.25824L26.1606 8.49268L27.5277 7.87552ZM26.9531 22.7813L27.7069 24.0781L27.7137 24.0742L26.9531 22.7813ZM15.7031 29.3203L16.3739 30.662L16.4161 30.6409L16.4569 30.6172L15.7031 29.3203ZM14.25 29.3203L15.045 28.0483L15.0234 28.0349L15.0014 28.0221L14.25 29.3203ZM2.95313 22.7813L3.70459 21.4831L3.69733 21.4789L2.95313 22.7813ZM2.50781 22.336L1.75366 21.0393L0.415125 21.8179L1.23582 23.131L2.50781 22.336ZM2.54651 22.3135L3.30066 23.6101L4.66448 22.8169L3.80341 21.4948L2.54651 22.3135ZM3.02344 7.21875L2.26964 5.92189L2.26291 5.92585L3.02344 7.21875ZM14.2734 0.679688L13.6026 -0.661953L13.5604 -0.640859L13.5196 -0.617155L14.2734 0.679688ZM27.7951 5.89527L16.4748 -0.620352L14.9783 1.97973L26.2986 8.49535L27.7951 5.89527ZM28.951 7.15731C28.6769 6.60914 28.2737 6.21041 27.8789 5.94724L26.2148 8.44339C26.2256 8.45058 26.238 8.46084 26.2488 8.47257C26.259 8.48369 26.2646 8.49277 26.2677 8.49895L28.951 7.15731ZM28.2808 9.17277L28.3625 9.12538L26.8563 6.53087L26.7747 6.57827L28.2808 9.17277ZM29.1328 8.46096C29.1328 8.19281 29.1107 7.73633 28.8949 7.25836L26.1606 8.49268C26.1373 8.44116 26.1314 8.40591 26.1307 8.40121C26.1303 8.39866 26.1309 8.40184 26.1316 8.41228C26.1322 8.42278 26.1328 8.43839 26.1328 8.46096H29.1328ZM29.1328 21.5156V8.46096H26.1328V21.5156H29.1328ZM27.7137 24.0742C28.2283 23.7715 28.5687 23.3136 28.7738 22.9185C28.9815 22.5182 29.1328 22.0245 29.1328 21.5156H26.1328C26.1328 21.4931 26.1345 21.4796 26.1351 21.4755C26.1357 21.4711 26.1358 21.4724 26.1341 21.4788C26.1302 21.4932 26.1224 21.5146 26.111 21.5366C26.1057 21.5468 26.1009 21.5547 26.0973 21.56C26.0937 21.5654 26.0926 21.5664 26.095 21.5635C26.0974 21.5608 26.1053 21.5521 26.1199 21.5395C26.1345 21.527 26.1583 21.5085 26.1926 21.4884L27.7137 24.0742ZM16.4569 30.6172L27.7069 24.0781L26.1993 21.4844L14.9493 28.0235L16.4569 30.6172ZM14.9766 30.9844C15.4946 30.9844 15.9817 30.8581 16.3739 30.662L15.0323 27.9787C15.0408 27.9744 15.0441 27.9734 15.042 27.9742C15.04 27.9749 15.0351 27.9765 15.0276 27.9783C15.0115 27.9821 14.9934 27.9844 14.9766 27.9844V30.9844ZM13.455 30.5923C13.9868 30.9247 14.5729 30.9844 14.9766 30.9844V27.9844C14.9475 27.9844 14.9255 27.9832 14.9103 27.9817C14.8949 27.9803 14.8893 27.9789 14.8924 27.9796C14.8954 27.9802 14.9109 27.9837 14.9359 27.9932C14.9611 28.0028 14.9992 28.0197 15.045 28.0483L13.455 30.5923ZM2.20168 24.0795L13.4986 30.6185L15.0014 28.0221L3.70457 21.4831L2.20168 24.0795ZM1.23582 23.131C1.46192 23.4927 1.79578 23.8476 2.20892 24.0836L3.69733 21.4789C3.72558 21.495 3.74433 21.5087 3.75469 21.5168C3.76534 21.5251 3.77125 21.5308 3.77355 21.5331C3.77669 21.5363 3.77752 21.5373 3.77981 21.541L1.23582 23.131ZM1.79235 21.0168L1.75366 21.0393L3.26197 23.6326L3.30066 23.6101L1.79235 21.0168ZM0.84375 21.5391C0.84375 21.93 0.906678 22.5442 1.2896 23.1321L3.80341 21.4948C3.83499 21.5433 3.84461 21.58 3.84626 21.5871C3.84706 21.5906 3.84631 21.5884 3.84543 21.5795C3.84455 21.5707 3.84375 21.5573 3.84375 21.5391H0.84375ZM0.84375 8.48438V21.5391H3.84375V8.48438H0.84375ZM2.26291 5.92585C1.74829 6.22856 1.40785 6.68641 1.2028 7.08149C0.995054 7.48179 0.84375 7.97552 0.84375 8.48438H3.84375C3.84375 8.50689 3.84203 8.52042 3.84145 8.52453C3.84082 8.52889 3.84075 8.5276 3.84247 8.5212C3.84633 8.50684 3.85413 8.48544 3.86556 8.46343C3.87085 8.45323 3.87566 8.44534 3.87923 8.44002C3.88285 8.43462 3.88398 8.43366 3.88152 8.43649C3.87915 8.43922 3.87131 8.44793 3.85668 8.46048C3.8421 8.47299 3.81825 8.49149 3.78397 8.51165L2.26291 5.92585ZM13.5196 -0.617155L2.26965 5.92191L3.77723 8.51559L15.0272 1.97653L13.5196 -0.617155ZM15 -0.984375C14.482 -0.984375 13.9949 -0.858074 13.6026 -0.661953L14.9443 2.02133C14.9358 2.02558 14.9325 2.02659 14.9346 2.02583C14.9365 2.02514 14.9415 2.0235 14.949 2.02171C14.965 2.01789 14.9832 2.01562 15 2.01562V-0.984375ZM16.5216 -0.59231C15.9897 -0.924711 15.4037 -0.984375 15 -0.984375V2.01562C15.0291 2.01562 15.0511 2.01686 15.0663 2.01828C15.0817 2.01972 15.0872 2.02107 15.0841 2.02041C15.0812 2.01978 15.0657 2.01631 15.0407 2.00679C15.0155 1.99723 14.9773 1.98028 14.9316 1.95168L16.5216 -0.59231Z" fill="white" mask="url(#path-1-inside-1_9_280)"/>
<path d="M19.0379 17.3693C18.2085 18.8182 16.6287 19.7973 14.8316 19.7973C12.1657 19.7973 9.99342 17.6434 9.99342 15C9.99342 12.3566 12.1657 10.2027 14.8316 10.2027C16.6287 10.2027 18.2085 11.1818 19.0379 12.6503L21.6051 11.1818C20.2623 8.85166 17.7345 7.26562 14.8316 7.26562C10.5266 7.26562 7.03125 10.7314 7.03125 15C7.03125 19.2686 10.5266 22.7344 14.8316 22.7344C17.7148 22.7344 20.2425 21.1679 21.5854 18.8574L19.0379 17.3693ZM21.3484 15.4308L21.5261 14.5888H20.6967V13.6685H21.7039L21.9408 12.4545H22.9085L22.6715 13.6489H23.4219L23.6589 12.4545H24.6068L24.3698 13.6489H24.8438V14.5692H24.1921L24.0143 15.4112H24.8438V16.3315H23.8366L23.5996 17.5063H22.632L22.869 16.3315H22.1186L21.8816 17.5063H20.9337L21.1707 16.3315H20.6967V15.4112H21.3484V15.4308ZM22.2963 15.4308H23.0467L23.2244 14.5888H22.474L22.2963 15.4308Z" fill="white"/>
</svg>
