<svg width="26" height="27" viewBox="0 0 26 27" fill="none" xmlns="http://www.w3.org/2000/svg">
<path d="M6.09827 20.9018L1.82279 16.6263C1.30743 16.0963 1.01323 15.39 1 14.6509C1 14.3178 1.18654 13.7982 1.32811 13.5L5.27548 5.27551" stroke="white" stroke-width="1.5"/>
<path d="M20.8534 6.39474L16.4613 1.82278C16.0899 1.44803 15.3121 1 14.6525 1C14.0863 1 13.5333 1.11326 13.1719 1.32812C10.0888 2.86966 8.36022 3.73394 5.27713 5.27548M21.5613 21.5596V26H11.1982L6.75781 21.558" stroke="white" stroke-width="1.5"/>
<path d="M21.5613 21.5612H6.75782L6.09993 20.9033C5.4437 20.2438 5.27881 19.919 5.27881 18.5999V5.2771" stroke="white" stroke-width="1.5"/>
<path d="M25.25 11.6704V20.8096H21.8703L7.08766 6.02547H18.435C18.878 6.02547 19.1743 6.04733 19.4311 6.12554C19.6681 6.19774 19.9122 6.33133 20.2053 6.62572L20.2065 6.62692L25.25 11.6704Z" stroke="white" stroke-width="1.5"/>
<g opacity="0.2">
<mask id="path-5-inside-1_9_304" fill="white">
<path d="M25.8368 11.1982V21.3947H21.3964L21.5613 21.5596H26.0034V11.3631L25.8368 11.1982Z"/>
</mask>
<path d="M25.8368 11.1982L26.8921 10.1322L24.3368 7.6024V11.1982H25.8368ZM25.8368 21.3947V22.8947H27.3368V21.3947H25.8368ZM21.3964 21.3947V19.8947H17.7752L20.3357 22.4554L21.3964 21.3947ZM21.5613 21.5596L20.5006 22.6203L20.94 23.0596H21.5613V21.5596ZM26.0034 21.5596V23.0596H27.5034V21.5596H26.0034ZM26.0034 11.3631H27.5034V10.7374L27.0587 10.2971L26.0034 11.3631ZM24.3368 11.1982V21.3947H27.3368V11.1982H24.3368ZM25.8368 19.8947H21.3964V22.8947H25.8368V19.8947ZM20.3357 22.4554L20.5006 22.6203L22.622 20.499L22.4571 20.3341L20.3357 22.4554ZM21.5613 23.0596H26.0034V20.0596H21.5613V23.0596ZM27.5034 21.5596V11.3631H24.5034V21.5596H27.5034ZM27.0587 10.2971L26.8921 10.1322L24.7815 12.2642L24.948 12.4291L27.0587 10.2971Z" fill="white" mask="url(#path-5-inside-1_9_304)"/>
</g>
<g opacity="0.2">
<mask id="path-7-inside-2_9_304" fill="white">
<path d="M20.7368 6.0983C19.9224 5.28218 19.2545 5.27551 18.2718 5.27551H5.27713L5.44369 5.44207H18.2735C18.7615 5.44207 20.0007 5.35879 20.7368 6.0983Z"/>
</mask>
<path d="M20.7368 6.0983C19.9224 5.28218 19.2545 5.27551 18.2718 5.27551H5.27713L5.44369 5.44207H18.2735C18.7615 5.44207 20.0007 5.35879 20.7368 6.0983Z" fill="white"/>
<path d="M20.7368 6.0983L19.6751 7.15788L21.7999 5.04004L20.7368 6.0983ZM5.27713 5.27551V3.77551H1.65581L4.21647 6.33617L5.27713 5.27551ZM5.44369 5.44207L4.38303 6.50273L4.82237 6.94207H5.44369V5.44207ZM21.7986 5.03872C21.2302 4.46916 20.6331 4.11133 19.9513 3.93082C19.3376 3.76835 18.7234 3.77551 18.2718 3.77551V6.77551C18.8029 6.77551 19.0139 6.78601 19.1835 6.8309C19.2849 6.85775 19.429 6.91132 19.6751 7.15788L21.7986 5.03872ZM18.2718 3.77551H5.27713V6.77551H18.2718V3.77551ZM4.21647 6.33617L4.38303 6.50273L6.50435 4.38141L6.33779 4.21485L4.21647 6.33617ZM5.44369 6.94207H18.2735V3.94207H5.44369V6.94207ZM18.2735 6.94207C18.5997 6.94207 18.8672 6.9264 19.1827 6.97523C19.4913 7.02298 19.6244 7.10698 19.6738 7.15656L21.7999 5.04004C21.1131 4.35011 20.2585 4.10599 19.6415 4.01051C19.0313 3.9161 18.4353 3.94207 18.2735 3.94207V6.94207Z" fill="white" mask="url(#path-7-inside-2_9_304)"/>
</g>
</svg>
