<svg width="19" height="27" viewBox="0 0 19 27" fill="none" xmlns="http://www.w3.org/2000/svg">
<path d="M1 5.16667C1 2.86548 2.86548 1 5.16667 1H9.33333V9.33333H5.16667C2.86548 9.33333 1 7.46785 1 5.16667V5.16667Z" stroke="white" stroke-width="2"/>
<path d="M17.6667 5.16667C17.6667 2.86548 15.8012 1 13.5 1H9.33333V9.33333H13.5C15.8012 9.33333 17.6667 7.46785 17.6667 5.16667V5.16667Z" stroke="white" stroke-width="2"/>
<path d="M17.6667 13.5C17.6667 11.1989 15.8012 9.33337 13.5 9.33337V9.33337C11.1988 9.33337 9.33333 11.1989 9.33333 13.5V13.5C9.33333 15.8012 11.1988 17.6667 13.5 17.6667V17.6667C15.8012 17.6667 17.6667 15.8012 17.6667 13.5V13.5Z" stroke="white" stroke-width="2"/>
<path d="M1 13.5C1 11.1989 2.86548 9.33337 5.16667 9.33337H9.33333V17.6667H5.16667C2.86548 17.6667 1 15.8012 1 13.5V13.5Z" stroke="white" stroke-width="2"/>
<path d="M1 21.8333C1 19.5321 2.86548 17.6666 5.16667 17.6666H9.33333V21.8333C9.33333 24.1345 7.46785 26 5.16667 26V26C2.86548 26 1 24.1345 1 21.8333V21.8333Z" stroke="white" stroke-width="2"/>
</svg>
