<svg width="31" height="37" viewBox="0 0 31 37" fill="none" xmlns="http://www.w3.org/2000/svg">
<g clip-path="url(#clip0_3_131)">
<path d="M12.3091 24.4712C12.3091 24.4712 11.2627 25.0797 13.0538 25.2856C15.2236 25.5331 16.3326 25.4976 18.7237 25.0451C18.7237 25.0451 19.3524 25.4393 20.2303 25.7807C14.87 28.078 8.09883 25.6476 12.3091 24.4712Z" fill="white"/>
<path d="M11.6541 21.4733C11.6541 21.4733 10.4805 22.342 12.2729 22.5274C14.5907 22.7665 16.4212 22.7861 19.5886 22.1762C19.5886 22.1762 20.0267 22.6203 20.7156 22.8632C14.2346 24.7583 7.01599 23.0127 11.6541 21.4733Z" fill="white"/>
<path d="M17.176 16.3879C18.4968 17.9085 16.829 19.2769 16.829 19.2769C16.829 19.2769 20.1827 17.5456 18.6425 15.3776C17.204 13.3559 16.1008 12.3513 22.0728 8.88782C22.0728 8.88782 12.6988 11.229 17.176 16.3879Z" fill="white"/>
<path d="M24.2655 26.6886C24.2655 26.6886 25.0398 27.3267 23.4127 27.8203C20.3186 28.7576 10.5349 29.0406 7.81698 27.8576C6.83997 27.4326 8.67214 26.8427 9.24847 26.719C9.84952 26.5886 10.193 26.6129 10.193 26.6129C9.10647 25.8475 3.17009 28.1158 7.17762 28.7655C18.1067 30.5378 27.1003 27.9673 24.2655 26.6886Z" fill="white"/>
<path d="M12.8123 18.3672C12.8123 18.3672 7.83564 19.5492 11.0499 19.9785C12.4071 20.1602 15.1126 20.1191 17.6327 19.9079C19.6922 19.7342 21.7603 19.3648 21.7603 19.3648C21.7603 19.3648 21.034 19.6758 20.5086 20.0346C15.455 21.3637 5.69217 20.7454 8.50275 19.3858C10.8797 18.2369 12.8123 18.3672 12.8123 18.3672Z" fill="white"/>
<path d="M21.7398 23.3573C26.8771 20.6877 24.5018 18.1223 22.8439 18.468C22.4375 18.5525 22.2563 18.6258 22.2563 18.6258C22.2563 18.6258 22.4072 18.3895 22.6953 18.2872C25.9752 17.1341 28.4976 21.6881 21.6365 23.4918C21.6365 23.4919 21.716 23.4208 21.7398 23.3573Z" fill="white"/>
<path d="M18.6424 3.29517C18.6424 3.29517 21.4876 6.14125 15.944 10.5177C11.4986 14.0284 14.9303 16.0301 15.9421 18.3171C13.3473 15.9759 11.443 13.915 12.7205 11.9968C14.5957 9.18113 19.7904 7.81599 18.6424 3.29517Z" fill="white"/>
<path d="M13.3171 30.5911C18.2483 30.9068 25.8207 30.416 26 28.0827C26 28.0827 25.6553 28.9672 21.9246 29.6697C17.7158 30.4618 12.5247 30.3693 9.44589 29.8617C9.44597 29.8616 10.0762 30.3833 13.3171 30.5911Z" fill="white"/>
</g>
<defs>
<clipPath id="clip0_3_131">
<rect width="31" height="37" fill="white"/>
</clipPath>
</defs>
</svg>
