<svg width="35" height="35" viewBox="0 0 35 35" fill="none" xmlns="http://www.w3.org/2000/svg">
<g clip-path="url(#clip0_9_397)">
<path d="M6.19743 0.500003H6.19792L28.8021 0.500003L28.8026 0.500003C29.5492 0.499281 30.2889 0.649558 30.9795 0.942572L31.1748 0.482285L30.9795 0.942572C31.6702 1.2356 32.2986 1.66579 32.8284 2.20917L33.1775 1.8688L32.8284 2.20917C33.3582 2.75258 33.779 3.3985 34.0661 4.11027C34.3531 4.82207 34.5007 5.58537 34.5 6.35638V6.35684V28.6432V28.6436C34.5007 29.4146 34.3531 30.1779 34.0661 30.8897C33.779 31.6015 33.3582 32.2474 32.8284 32.7908C32.2986 33.3342 31.6702 33.7644 30.9795 34.0574C30.2889 34.3504 29.5492 34.5007 28.8026 34.5H28.8021H6.19792H6.19744C5.45082 34.5007 4.71109 34.3504 4.02046 34.0574C3.32979 33.7644 2.70141 33.3342 2.17162 32.7908C1.6418 32.2474 1.22101 31.6015 0.933934 30.8897C0.646851 30.1779 0.499294 29.4146 0.500003 28.6436V28.6432L0.500003 6.35684L0.500003 6.35638C0.499294 5.58537 0.646851 4.82207 0.933934 4.11027C1.22101 3.3985 1.6418 2.75258 2.17162 2.20917C2.70141 1.66579 3.32979 1.2356 4.02046 0.942572C4.71109 0.649558 5.45082 0.499281 6.19743 0.500003Z" stroke="white"/>
<path d="M23.5706 27.3862C24.2756 28.5373 25.1928 29.3834 26.815 29.3834C28.1778 29.3834 29.0483 28.7023 29.0483 27.7612C29.0483 26.6334 28.1539 26.2339 26.6539 25.5778L25.8317 25.225C23.4583 24.2139 21.8817 22.9473 21.8817 20.2695C21.8817 17.8028 23.7611 15.925 26.6983 15.925C28.7894 15.925 30.2928 16.6528 31.3761 18.5584L28.815 20.2028C28.2511 19.1917 27.6428 18.7934 26.6983 18.7934C25.735 18.7934 25.1244 19.4045 25.1244 20.2028C25.1244 21.1895 25.7355 21.5889 27.1467 22.2L27.9689 22.5523C30.7633 23.7506 32.3411 24.9723 32.3411 27.7189C32.3411 30.68 30.015 32.3023 26.8911 32.3023C23.8367 32.3023 21.8633 30.8467 20.8978 28.9389L23.5706 27.3862ZM11.9522 27.6712C12.4689 28.5878 12.9389 29.3628 14.0689 29.3628C15.1494 29.3628 15.8311 28.94 15.8311 27.2962V16.1128H19.12V27.3406C19.12 30.7462 17.1233 32.2962 14.2089 32.2962C11.5755 32.2962 10.0505 30.9334 9.27499 29.292L11.9522 27.6712Z" fill="white"/>
</g>
<defs>
<clipPath id="clip0_9_397">
<rect width="35" height="35" fill="white"/>
</clipPath>
</defs>
</svg>
