<svg width="77" height="20" viewBox="0 0 77 20" fill="none" xmlns="http://www.w3.org/2000/svg">
<g clip-path="url(#clip0_9_243)">
<path d="M5.89473 2.09207C5.11842 1.17101 4.46052 0.249961 4.31578 0.052593C4.30263 0.0394351 4.27631 0.0394351 4.26315 0.052593C4.13157 0.249961 3.46052 1.17101 2.68421 2.09207C-3.94737 10.5526 3.72368 16.2631 3.72368 16.2631L3.78947 16.3026C3.8421 17.1842 3.98684 18.4473 3.98684 18.4473H4.27631H4.56578C4.56578 18.4473 4.71052 17.1842 4.76315 16.3026L4.82894 16.25C4.85526 16.2631 12.5263 10.5526 5.89473 2.09207ZM4.28947 16.1315C4.28947 16.1315 3.94736 15.8421 3.85526 15.6842V15.671L4.27631 6.46049C4.27631 6.43417 4.31578 6.43417 4.31578 6.46049L4.73684 15.671V15.6842C4.64473 15.8421 4.28947 16.1315 4.28947 16.1315ZM18.6579 14.25L15.4605 6.43417L15.4474 6.40786H12.9605V6.93417H13.3684C13.4868 6.93417 13.6053 6.98681 13.6974 7.06575C13.7895 7.15786 13.8289 7.26312 13.8289 7.3947L13.7632 15.2631C13.7632 15.5131 13.5658 15.7105 13.3158 15.7105L12.9079 15.7236V16.2368H15.3289V15.7236L15.0789 15.7105C14.8289 15.6973 14.6316 15.5 14.6316 15.2631V7.85523L18.1184 16.25C18.171 16.3684 18.2895 16.4473 18.4079 16.4473C18.5395 16.4473 18.6579 16.3684 18.6974 16.25L22.1053 8.0526L22.1579 15.2763C22.1579 15.5263 21.9605 15.7236 21.7105 15.7368H21.4474V16.25H24.2895V15.7368H23.9079C23.6579 15.7368 23.4605 15.5263 23.4605 15.2894L23.4342 7.42101C23.4342 7.17101 23.6316 6.97365 23.8816 6.96049L24.3026 6.94733V6.42101H21.8816L18.6579 14.25ZM40.9737 15.5921C40.8947 15.5131 40.8553 15.4079 40.8553 15.2763V11.4079C40.8553 10.671 40.6447 10.0921 40.2105 9.68417C39.7895 9.27628 39.1974 9.06575 38.4605 9.06575C37.4342 9.06575 36.6184 9.4868 36.0526 10.3026C36.0395 10.3157 36.0263 10.3289 36 10.3289C35.9737 10.3289 35.9605 10.3158 35.9605 10.2894L35.6974 9.26312H35.25L34.1053 9.92101V10.2763H34.3947C34.5263 10.2763 34.6447 10.3158 34.7237 10.3815C34.8026 10.4473 34.8421 10.5658 34.8421 10.7105V15.2631C34.8421 15.3947 34.8026 15.5 34.7237 15.5789C34.6447 15.6579 34.5395 15.6973 34.4079 15.6973H34.1184V16.2236H36.75V15.6973H36.4605C36.3289 15.6973 36.2237 15.6579 36.1447 15.5789C36.0658 15.5 36.0263 15.3947 36.0263 15.2631V12.25C36.0263 11.8684 36.1184 11.4868 36.2763 11.1052C36.4474 10.7368 36.6842 10.4342 37.0132 10.1842C37.3421 9.94733 37.7237 9.82891 38.1711 9.82891C38.6711 9.82891 39.0526 9.9868 39.2895 10.3026C39.5263 10.6184 39.6447 11.0263 39.6447 11.5263V15.2631C39.6447 15.3947 39.6053 15.5 39.5263 15.5789C39.4474 15.6579 39.3421 15.6973 39.2105 15.6973H38.921V16.2236H41.5526V15.6973H41.2632C41.1579 15.7105 41.0526 15.671 40.9737 15.5921ZM65.0132 6.99996C64.2895 6.61838 63.4737 6.40786 62.5921 6.40786H59.1711V6.93417H59.5C59.6316 6.93417 59.7368 6.9868 59.8553 7.10523C59.9605 7.21049 60.0132 7.32891 60.0132 7.46049V15.1842C60.0132 15.3157 59.9605 15.4342 59.8553 15.5394C59.75 15.6447 59.6316 15.7105 59.5 15.7105H59.1711V16.2368H62.5921C63.4737 16.2368 64.2763 16.0394 65.0132 15.6447C65.7368 15.2631 66.3289 14.6842 66.7632 13.9473C67.1974 13.2105 67.4079 12.3289 67.4079 11.3289C67.4079 10.3289 67.1842 9.44733 66.7632 8.71049C66.3289 7.97365 65.75 7.3947 65.0132 6.99996ZM66.0395 11.3158C66.0395 12.2368 65.8816 13.0131 65.5526 13.6315C65.2368 14.25 64.8026 14.7236 64.2763 15.0263C63.75 15.3289 63.1579 15.4736 62.5395 15.4736H61.8421C61.7105 15.4736 61.6053 15.421 61.4868 15.3026C61.3816 15.1973 61.3289 15.0789 61.3289 14.9473V7.67101C61.3289 7.53943 61.3816 7.42102 61.4868 7.31575C61.5921 7.21049 61.7105 7.1447 61.8421 7.1447H62.5395C63.1711 7.1447 63.75 7.28944 64.2763 7.59207C64.8026 7.8947 65.2368 8.35522 65.5526 8.9868C65.8684 9.61838 66.0395 10.4079 66.0395 11.3158ZM75.5 11.8421C75.1842 11.4736 74.5658 11.171 73.8553 11C74.8421 10.5 75.3553 9.80259 75.3553 8.90786C75.3553 8.42102 75.2237 7.9868 74.9605 7.60522C74.6974 7.2368 74.3289 6.93417 73.8684 6.72365C73.3947 6.51312 72.8553 6.40786 72.2368 6.40786H68.3553V6.93417H68.6579C68.7895 6.93417 68.9079 6.9868 69.0132 7.10523C69.1184 7.21049 69.1842 7.32891 69.1842 7.46049V15.1842C69.1842 15.3157 69.1316 15.4342 69.0132 15.5394C68.9079 15.6447 68.7895 15.7105 68.6579 15.7105H68.3158V16.2368H72.5263C73.1711 16.2368 73.7632 16.1315 74.3026 15.9079C74.8421 15.6973 75.2763 15.3815 75.5789 14.9605C75.8947 14.5394 76.0526 14.0394 76.0526 13.4473C76.0789 12.8158 75.8816 12.2763 75.5 11.8421ZM70.6842 15.3157C70.5789 15.2105 70.5132 15.0921 70.5132 14.9605V11.5H72.5131C73.2237 11.5 73.7632 11.6842 74.1316 12.0394C74.5 12.3947 74.6974 12.8684 74.6974 13.4342C74.6974 13.7763 74.6053 14.1184 74.4474 14.421C74.2763 14.7368 74.0395 14.9868 73.7105 15.1842C73.3816 15.3815 72.9868 15.4736 72.5131 15.4736H71.0395C70.9079 15.4736 70.8026 15.4342 70.6842 15.3157ZM70.5263 10.7631V7.68417C70.5263 7.55259 70.5789 7.43417 70.6974 7.32891C70.8026 7.22365 70.921 7.15786 71.0526 7.15786H72C72.6842 7.15786 73.1842 7.32891 73.5 7.65786C73.8158 7.99996 73.9737 8.42101 73.9737 8.96049C73.9737 9.49996 73.8289 9.94733 73.5263 10.2763C73.2368 10.6052 72.7895 10.7631 72.1974 10.7631H70.5263ZM30.9474 9.52628C30.3947 9.22364 29.7895 9.06575 29.1184 9.06575C28.4474 9.06575 27.8289 9.21049 27.2895 9.52628C26.7368 9.82891 26.3026 10.2631 25.9868 10.8158C25.671 11.3684 25.5 12.0131 25.5 12.7236C25.5 13.4342 25.6579 14.0789 25.9868 14.6315C26.3158 15.1842 26.7368 15.6184 27.2895 15.921C27.8421 16.2236 28.4474 16.3815 29.1184 16.3815C29.7895 16.3815 30.4079 16.2368 30.9474 15.921C31.5 15.6184 31.9342 15.1842 32.25 14.6315C32.5658 14.0789 32.7368 13.4342 32.7368 12.7236C32.7368 12.0131 32.5789 11.3684 32.25 10.8158C31.9342 10.2631 31.5 9.82891 30.9474 9.52628ZM31.4737 12.7236C31.4737 13.6052 31.2632 14.3158 30.8289 14.8289C30.4079 15.3421 29.8289 15.6052 29.1184 15.6052C28.4079 15.6052 27.8289 15.3421 27.4079 14.8289C26.9737 14.3158 26.7632 13.6052 26.7632 12.7236C26.7632 11.8421 26.9737 11.1315 27.4079 10.6184C27.8289 10.1052 28.4079 9.84206 29.1184 9.84206C29.8289 9.84206 30.4079 10.1052 30.8289 10.6184C31.2632 11.1315 31.4737 11.8421 31.4737 12.7236ZM56.2368 9.52628C55.6842 9.22364 55.0789 9.06575 54.4079 9.06575C53.75 9.06575 53.1184 9.21049 52.5789 9.52628C52.0263 9.82891 51.5921 10.2631 51.2763 10.8158C50.9605 11.3684 50.7895 12.0131 50.7895 12.7236C50.7895 13.4342 50.9474 14.0789 51.2763 14.6315C51.5921 15.1842 52.0263 15.6184 52.5789 15.921C53.1316 16.2236 53.7368 16.3815 54.4079 16.3815C55.0658 16.3815 55.6974 16.2368 56.2368 15.921C56.7895 15.6184 57.2237 15.1842 57.5395 14.6315C57.8553 14.0789 58.0263 13.4342 58.0263 12.7236C58.0263 12.0131 57.8684 11.3684 57.5395 10.8158C57.2237 10.2631 56.7763 9.82891 56.2368 9.52628ZM56.7632 12.7236C56.7632 13.6052 56.5526 14.3158 56.1184 14.8289C55.6974 15.3421 55.1184 15.6052 54.4079 15.6052C53.6974 15.6052 53.1184 15.3421 52.6974 14.8289C52.2632 14.3158 52.0526 13.6052 52.0526 12.7236C52.0526 11.8421 52.2632 11.1315 52.6974 10.6184C53.1184 10.1052 53.6974 9.84206 54.4079 9.84206C55.1184 9.84206 55.6974 10.1052 56.1184 10.6184C56.5395 11.1315 56.7632 11.8421 56.7632 12.7236ZM46.0395 9.06575C45.4605 9.06575 44.9342 9.18417 44.4605 9.43417C43.9868 9.68417 43.6184 10.0131 43.3421 10.4342C43.0789 10.8552 42.9342 11.3157 42.9342 11.8157C42.9342 12.2631 43.0395 12.671 43.2368 13.0394C43.4342 13.3947 43.7105 13.6842 44.0526 13.9342L43.0263 15.3289C42.8947 15.5 42.8816 15.7368 42.9737 15.921C43.0789 16.1184 43.2632 16.2236 43.4737 16.2236H43.7632C43.4737 16.421 43.25 16.6447 43.0921 16.921C42.9079 17.2236 42.8158 17.5526 42.8158 17.8815C42.8158 18.5 43.0921 19.0131 43.6316 19.3947C44.1579 19.7763 44.9079 19.9736 45.8553 19.9736C46.5132 19.9736 47.1316 19.8684 47.6974 19.6579C48.2763 19.4473 48.7368 19.1447 49.0789 18.7368C49.4342 18.3289 49.6053 17.8421 49.6053 17.2894C49.6053 16.6973 49.3947 16.2894 48.8816 15.8815C48.4474 15.5394 47.7763 15.3684 46.9342 15.3684H44.0658C44.0526 15.3684 44.0526 15.3552 44.0526 15.3552C44.0526 15.3552 44.0395 15.3421 44.0526 15.3289L44.8026 14.3289C45 14.421 45.1842 14.4736 45.3553 14.5131C45.5263 14.5526 45.7237 14.5658 45.9342 14.5658C46.5395 14.5658 47.0789 14.4473 47.5526 14.1973C48.0263 13.9473 48.4079 13.6184 48.6842 13.1973C48.9605 12.7763 49.0921 12.3157 49.0921 11.8157C49.0921 11.2894 48.8289 10.3158 48.1316 9.81575C48.1316 9.80259 48.1447 9.80259 48.1447 9.80259L49.6842 9.97364V9.26312H47.2105C46.8553 9.1447 46.4605 9.06575 46.0395 9.06575ZM46.8947 13.5658C46.6184 13.7105 46.3289 13.7894 46.0263 13.7894C45.5395 13.7894 45.1184 13.6184 44.7632 13.2763C44.4079 12.9342 44.2237 12.4473 44.2237 11.8157C44.2237 11.1842 44.4079 10.6842 44.7632 10.3552C45.1184 10.0131 45.5526 9.84206 46.0263 9.84206C46.3289 9.84206 46.6184 9.90786 46.8947 10.0658C47.1711 10.2105 47.3947 10.4342 47.5658 10.7236C47.7368 11.0131 47.8289 11.3815 47.8289 11.8157C47.8289 12.25 47.7368 12.6184 47.5658 12.9079C47.4079 13.1973 47.1711 13.421 46.8947 13.5658ZM44.9474 16.2105H46.8947C47.4342 16.2105 47.7763 16.3157 48.0132 16.5526C48.2368 16.7763 48.3553 17.0921 48.3553 17.4473C48.3553 17.9736 48.1447 18.4079 47.7237 18.7236C47.3026 19.0526 46.75 19.2105 46.0526 19.2105C45.4474 19.2105 44.9474 19.0789 44.5789 18.8158C44.2105 18.5526 44.0263 18.1579 44.0263 17.6579C44.0263 17.3421 44.1184 17.0526 44.2895 16.7894C44.4737 16.5263 44.6842 16.3421 44.9474 16.2105ZM77.5395 16.1184C77.3947 16.0394 77.2895 15.9342 77.2105 15.7894C77.1316 15.6447 77.0921 15.5 77.0921 15.3421C77.0921 15.1842 77.1316 15.0263 77.2105 14.8947C77.2895 14.75 77.4079 14.6447 77.5395 14.5658C77.6842 14.4868 77.8421 14.4473 78.0132 14.4473C78.1974 14.4473 78.3421 14.4868 78.4868 14.5658C78.6316 14.6447 78.7368 14.75 78.8158 14.8947C78.8947 15.0394 78.9342 15.1842 78.9342 15.3421C78.9342 15.5 78.8947 15.6579 78.8158 15.7894C78.7368 15.9342 78.6184 16.0394 78.4868 16.1184C78.3421 16.1973 78.1842 16.2368 78.0132 16.2368C77.8421 16.2368 77.6842 16.1973 77.5395 16.1184ZM78.4079 16.0131C78.5263 15.9473 78.6184 15.8552 78.6842 15.7368C78.75 15.6184 78.7895 15.4868 78.7895 15.3289C78.7895 15.1842 78.75 15.0526 78.6842 14.921C78.6184 14.8026 78.5263 14.7105 78.4079 14.6447C78.2895 14.5789 78.1579 14.5394 78.0132 14.5394C77.8684 14.5394 77.7368 14.5789 77.6184 14.6447C77.5 14.7105 77.4079 14.8026 77.3421 14.921C77.2763 15.0394 77.2368 15.171 77.2368 15.3289C77.2368 15.4736 77.2763 15.6052 77.3421 15.7368C77.4079 15.8552 77.5 15.9473 77.6184 16.0131C77.7368 16.0789 77.8684 16.1184 78.0132 16.1184C78.1711 16.1184 78.3026 16.0789 78.4079 16.0131ZM77.6316 15.7631V15.6973L77.6447 15.6842H77.6842C77.6974 15.6842 77.7105 15.671 77.7237 15.671C77.7368 15.6579 77.7368 15.6447 77.7368 15.6315V14.9736C77.7368 14.9605 77.7237 14.9473 77.7237 14.9342C77.7105 14.921 77.6974 14.921 77.6842 14.921H77.6447L77.6316 14.9079V14.8684L77.6447 14.8552H78.0132C78.1184 14.8552 78.1974 14.8815 78.2632 14.921C78.3289 14.9736 78.3553 15.0394 78.3553 15.1184C78.3553 15.1842 78.3289 15.25 78.2895 15.2894C78.2368 15.3421 78.1842 15.3684 78.1053 15.3684L78.1842 15.3947L78.3421 15.6579C78.3553 15.6842 78.3684 15.6842 78.3947 15.6842H78.4342L78.4474 15.6973V15.7631L78.4342 15.7763H78.2105L78.1974 15.7631L77.9737 15.3815H77.9211V15.6315C77.9211 15.6447 77.9342 15.6579 77.9342 15.671C77.9474 15.6842 77.9605 15.6842 77.9737 15.6842H78.0132L78.0263 15.6973V15.7631L78.0132 15.7763H77.6316V15.7631ZM78 15.3026C78.0526 15.3026 78.1053 15.2894 78.1316 15.25C78.1579 15.2236 78.1842 15.171 78.1842 15.1184C78.1842 15.0657 78.1711 15.0131 78.1447 14.9868C78.1184 14.9473 78.0789 14.9342 78.0263 14.9342H78C77.9868 14.9342 77.9737 14.9473 77.9605 14.9473C77.9474 14.9605 77.9474 14.9736 77.9474 14.9868V15.3026H78Z" fill="white"/>
</g>
<defs>
<clipPath id="clip0_9_243">
<rect width="76.0526" height="20" fill="white"/>
</clipPath>
</defs>
</svg>
