<svg width="37" height="14" viewBox="0 0 37 14" fill="none" xmlns="http://www.w3.org/2000/svg">
<path d="M1.64 10.78C1.98667 10.78 2.26 10.8933 2.46 11.12C2.67333 11.3333 2.78 11.6133 2.78 11.96C2.78 12.3067 2.67333 12.5933 2.46 12.82C2.26 13.0333 1.98667 13.14 1.64 13.14C1.30667 13.14 1.03333 13.0333 0.82 12.82C0.606667 12.5933 0.5 12.3067 0.5 11.96C0.5 11.6133 0.606667 11.3333 0.82 11.12C1.03333 10.8933 1.30667 10.78 1.64 10.78ZM4.80125 0.399999H6.70125L11.9813 7.94C12.2213 8.28667 12.4479 8.63333 12.6613 8.98C12.8746 9.32667 13.0546 9.64 13.2013 9.92H13.2413C13.1746 8.93333 13.1413 7.95333 13.1413 6.98C13.1413 5.99333 13.1413 5 13.1413 4V0.399999H15.2013V13H13.3013L8.16125 5.7C7.90792 5.34 7.66125 4.95333 7.42125 4.54C7.18125 4.11333 6.97458 3.73333 6.80125 3.4H6.76125C6.82792 4.44 6.86125 5.47333 6.86125 6.5C6.86125 7.51333 6.86125 8.53333 6.86125 9.56V13H4.80125V0.399999ZM18.2388 0.399999H26.0388V2.12H20.3788V5.6H25.5188V7.3H20.3788V11.28H26.0988V13H18.2388V0.399999ZM36.7159 0.399999V2.16H32.9159V13H30.7759V2.16H27.0359V0.399999H36.7159Z" fill="white"/>
</svg>
