<svg width="51" height="25" viewBox="0 0 51 25" fill="none" xmlns="http://www.w3.org/2000/svg">
<path d="M8.46706 9.383H10.6055C12.313 9.383 12.9061 9.75768 13.1076 9.98097C13.442 10.3517 13.5051 11.1334 13.2902 12.2414C13.0487 13.4818 12.6011 14.3614 11.9597 14.8553C11.3029 15.3608 10.2353 15.6171 8.78653 15.6171H7.25549L8.46706 9.383ZM12.1351 4.93009H4.36733C4.00194 4.93009 3.68782 5.18912 3.6181 5.54777L0.0140409 24.0911C-0.0294704 24.3149 0.0293083 24.5463 0.174219 24.7223C0.319256 24.8982 0.535286 25 0.763275 25H4.8027C5.16822 25 5.48234 24.741 5.55206 24.3823L6.39023 20.07H9.22088C10.8216 20.07 12.1692 19.8954 13.2258 19.5513C14.3125 19.1982 15.3122 18.5996 16.1971 17.7722C16.9289 17.0989 17.5317 16.3432 17.9884 15.5257C18.4453 14.708 18.7735 13.7962 18.964 12.8156C19.4366 10.385 19.0527 8.43873 17.8229 7.0311C16.6051 5.63696 14.6913 4.93009 12.1351 4.93009ZM6.32941 16.3804H8.78653C10.4152 16.3804 11.6283 16.0737 12.4253 15.4601C13.2225 14.8463 13.7602 13.822 14.0396 12.3867C14.3069 11.0086 14.1851 10.0361 13.6743 9.46952C13.1629 8.90298 12.1401 8.61965 10.6055 8.61965H7.83781L6.32941 16.3804ZM12.1351 5.69345C14.4719 5.69345 16.1766 6.30668 17.2481 7.53326C18.3194 8.75985 18.6421 10.4719 18.2146 12.67C18.0387 13.5755 17.7411 14.4033 17.3221 15.1533C16.9027 15.9038 16.355 16.5901 15.6781 17.2124C14.8715 17.9672 13.9754 18.5051 12.9894 18.8255C12.0034 19.1467 10.7476 19.3066 9.22088 19.3066H5.76084L4.8027 24.2366H0.763275L4.36733 5.69345H12.1351Z" fill="white"/>
<path d="M25.571 -8.39233e-05H21.5634C21.1979 -8.39233e-05 20.8838 0.258947 20.8141 0.617598L17.21 19.1609C17.1665 19.3847 17.2253 19.6161 17.3703 19.7921C17.5153 19.968 17.7314 20.0698 17.9594 20.0698H21.967C22.3324 20.0698 22.6466 19.8108 22.7163 19.4521L24.6607 9.44645H27.2344C28.4256 9.44645 28.6756 9.7009 28.6857 9.71184C28.7579 9.78958 28.853 10.1496 28.6961 10.9562L27.1018 19.1609C27.0583 19.3847 27.1171 19.6161 27.2621 19.7921C27.4072 19.968 27.6232 20.0698 27.8512 20.0698H31.9224C32.2878 20.0698 32.602 19.8108 32.6718 19.4521L34.3485 10.823C34.742 8.79747 34.4054 7.27801 33.3484 6.30651C32.3397 5.38018 30.6501 4.92993 28.1831 4.92993H25.5388L26.3204 0.908947C26.3638 0.685156 26.3051 0.453606 26.1601 0.277779C26.0151 0.101826 25.799 -8.39233e-05 25.571 -8.39233e-05ZM25.571 0.763273L24.6129 5.69328H28.1831C30.4295 5.69328 31.979 6.08539 32.8318 6.8686C33.6846 7.65231 33.9401 8.92215 33.5992 10.6775L31.9224 19.3065H27.8512L29.4454 11.1019C29.6269 10.1686 29.5602 9.53195 29.2452 9.19251C28.9301 8.85307 28.2597 8.68309 27.2344 8.68309H24.0313L21.967 19.3065H17.9594L21.5634 0.763273H25.571Z" fill="white"/>
<path d="M39.9956 9.383H42.134C43.8415 9.383 44.4347 9.75768 44.6362 9.98097C44.9707 10.3517 45.0338 11.1334 44.8188 12.2413C44.5773 13.4818 44.1296 14.3614 43.4882 14.8553C42.8315 15.3608 41.7638 15.6171 40.3151 15.6171H38.7842L39.9956 9.383ZM43.6637 4.93009H35.896C35.5306 4.93009 35.2165 5.18912 35.1468 5.54777L31.5427 24.0911C31.4992 24.3149 31.558 24.5463 31.7029 24.7223C31.8479 24.8982 32.064 25 32.292 25H36.3314C36.6968 25 37.011 24.741 37.0807 24.3823L37.9188 20.07H40.7494C42.3502 20.07 43.6978 19.8954 44.7544 19.5513C45.841 19.1982 46.841 18.5995 47.7259 17.7719C48.4577 17.0988 49.0602 16.3432 49.517 15.5257C49.9738 14.708 50.3021 13.7962 50.4925 12.8156C50.9652 10.3849 50.5812 8.4386 49.3514 7.03098C48.1336 5.63696 46.22 4.93009 43.6637 4.93009ZM37.8581 16.3804H40.3151C41.9437 16.3804 43.1568 16.0737 43.9539 15.4601C44.7512 14.8463 45.2887 13.822 45.5681 12.3867C45.8356 11.0086 45.7138 10.0361 45.2029 9.46952C44.6914 8.90298 43.6686 8.61965 42.134 8.61965H39.3664L37.8581 16.3804ZM43.6637 5.69345C46.0004 5.69345 47.7051 6.30668 48.7766 7.53326C49.8481 8.75985 50.1707 10.4719 49.7432 12.67C49.5672 13.5755 49.2696 14.4033 48.8507 15.1533C48.4312 15.9038 47.8835 16.5901 47.2067 17.2124C46.4001 17.9672 45.504 18.5051 44.518 18.8255C43.532 19.1467 42.2762 19.3066 40.7494 19.3066H37.2894L36.3314 24.2366H32.292L35.896 5.69345H43.6637Z" fill="white"/>
</svg>
