<svg width="40" height="40" viewBox="0 0 40 40" fill="none" xmlns="http://www.w3.org/2000/svg">
<g clip-path="url(#clip0_5_194)">
<g clip-path="url(#clip1_5_194)">
<path d="M20 22.6449C21.5358 22.6449 22.7809 21.416 22.7809 19.9C22.7809 18.3841 21.5358 17.1552 20 17.1552C18.4642 17.1552 17.2191 18.3841 17.2191 19.9C17.2191 21.416 18.4642 22.6449 20 22.6449Z" fill="white"/>
<path fill-rule="evenodd" clip-rule="evenodd" d="M6.68644 18.1873C6.01171 18.7885 5.72826 19.3684 5.72826 19.9C5.72826 20.4317 6.01171 21.0116 6.68644 21.6128C7.36109 22.2139 8.37383 22.7847 9.68059 23.2772C12.2896 24.2605 15.9379 24.8821 20 24.8821C24.0621 24.8821 27.7104 24.2605 30.3194 23.2772C31.6262 22.7847 32.6389 22.2139 33.3136 21.6128C33.9883 21.0116 34.2717 20.4317 34.2717 19.9C34.2717 19.3684 33.9883 18.7885 33.3136 18.1873C32.6389 17.5861 31.6262 17.0154 30.3194 16.5229C27.7104 15.5396 24.0621 14.9179 20 14.9179C15.9379 14.9179 12.2896 15.5396 9.68059 16.5229C8.37383 17.0154 7.36109 17.5861 6.68644 18.1873ZM9.21688 15.3241C12.0084 14.272 15.821 13.6348 20 13.6348C24.179 13.6348 27.9916 14.272 30.7831 15.3241C32.1767 15.8493 33.3492 16.4903 34.1847 17.2348C35.0201 17.9792 35.5717 18.8788 35.5717 19.9C35.5717 20.9213 35.0201 21.8209 34.1847 22.5653C33.3492 23.3097 32.1767 23.9508 30.7831 24.476C27.9916 25.528 24.179 26.1653 20 26.1653C15.821 26.1653 12.0084 25.528 9.21688 24.476C7.82334 23.9508 6.65084 23.3097 5.81533 22.5653C4.9799 21.8209 4.42826 20.9213 4.42826 19.9C4.42826 18.8788 4.9799 17.9792 5.81533 17.2348C6.65084 16.4903 7.82334 15.8493 9.21688 15.3241Z" fill="white"/>
<path fill-rule="evenodd" clip-rule="evenodd" d="M14.8459 7.66296C13.9811 7.38679 13.3306 7.43442 12.8641 7.70026C12.3977 7.9661 12.0306 8.49833 11.8405 9.3757C11.6504 10.253 11.656 11.4041 11.8773 12.7674C12.3191 15.4893 13.5978 18.9187 15.6288 22.3911C17.6599 25.8634 20.0294 28.6712 22.1967 30.4099C23.2821 31.2807 24.2893 31.861 25.1541 32.1371C26.0189 32.4133 26.6694 32.3656 27.1359 32.0998C27.6023 31.834 27.9694 31.3017 28.1595 30.4244C28.3496 29.5471 28.344 28.396 28.1227 27.0327C27.6809 24.3108 26.4022 20.8813 24.3712 17.409C22.3401 13.9366 19.9706 11.1288 17.8033 9.39022C16.7179 8.51941 15.7107 7.93909 14.8459 7.66296ZM18.6233 8.39444C20.9421 10.2547 23.4075 13.1951 25.497 16.7674C27.5865 20.3397 28.9337 23.9174 29.4064 26.8297C29.6423 28.2835 29.6662 29.6063 29.4307 30.6928C29.1953 31.7791 28.6819 32.7004 27.7859 33.2111C26.8898 33.7217 25.8248 33.6999 24.7539 33.358C23.683 33.016 22.5343 32.3343 21.3767 31.4056C19.0579 29.5454 16.5925 26.6049 14.503 23.0327C12.4135 19.4604 11.0663 15.8827 10.5936 12.9704C10.3577 11.5165 10.3338 10.1938 10.5693 9.10731C10.8047 8.02096 11.3181 7.09962 12.2141 6.58899C13.1102 6.07836 14.1752 6.10013 15.2461 6.44207C16.317 6.78405 17.4657 7.46581 18.6233 8.39444Z" fill="white"/>
<path fill-rule="evenodd" clip-rule="evenodd" d="M28.1595 9.37569C27.9694 8.49832 27.6024 7.96609 27.1359 7.70025C26.6694 7.43441 26.0189 7.38678 25.1541 7.66295C24.2893 7.93909 23.2821 8.51941 22.1967 9.39021C20.0294 11.1288 17.6599 13.9366 15.6288 17.409C13.5978 20.8813 12.3191 24.3108 11.8773 27.0327C11.656 28.396 11.6504 29.5471 11.8405 30.4244C12.0306 31.3017 12.3977 31.834 12.8641 32.0998C13.3306 32.3656 13.9811 32.4133 14.8459 32.1371C15.7107 31.861 16.7179 31.2806 17.8033 30.4098C19.9706 28.6712 22.3401 25.8634 24.3712 22.3911C26.4022 18.9187 27.6809 15.4893 28.1227 12.7674C28.344 11.4041 28.3496 10.253 28.1595 9.37569ZM29.4064 12.9704C28.9337 15.8827 27.5865 19.4604 25.497 23.0327C23.4075 26.6049 20.9421 29.5454 18.6233 31.4056C17.4657 32.3343 16.317 33.016 15.2461 33.358C14.1752 33.6999 13.1102 33.7217 12.2141 33.2111C11.3181 32.7004 10.8047 31.7791 10.5693 30.6928C10.3338 29.6063 10.3577 28.2835 10.5936 26.8297C11.0663 23.9174 12.4135 20.3397 14.503 16.7674C16.5925 13.1951 19.0579 10.2547 21.3767 8.39443C22.5343 7.4658 23.683 6.78404 24.7539 6.44207C25.8248 6.10012 26.8898 6.07836 27.7859 6.58899C28.6819 7.09962 29.1953 8.02095 29.4308 9.1073C29.6662 10.1937 29.6424 11.5165 29.4064 12.9704Z" fill="white"/>
</g>
</g>
<defs>
<clipPath id="clip0_5_194">
<rect width="40" height="40" fill="white"/>
</clipPath>
<clipPath id="clip1_5_194">
<rect width="31.2" height="27.4" fill="white" transform="translate(4.4 6.20001)"/>
</clipPath>
</defs>
</svg>
