<svg width="40" height="40" viewBox="0 0 40 40" fill="none" xmlns="http://www.w3.org/2000/svg">
<g clip-path="url(#clip0_5_202)">
<g clip-path="url(#clip1_5_202)">
<path d="M30.9602 21.8197C29.9002 21.8253 28.979 22.0829 28.2077 22.4638C27.9246 21.8981 27.6416 21.3939 27.5917 21.0242C27.5362 20.5929 27.4696 20.3297 27.5362 19.8143C27.6028 19.299 27.9024 18.5652 27.8969 18.5091C27.8913 18.4531 27.8303 18.1899 27.2198 18.1843C26.6094 18.1787 26.0822 18.3019 26.0212 18.4643C25.9601 18.6268 25.8436 18.9965 25.7659 19.3774C25.6604 19.9375 24.545 21.9373 23.9068 22.9848C23.7015 22.5759 23.5239 22.2174 23.4851 21.9317C23.4296 21.5004 23.363 21.2371 23.4296 20.7218C23.4962 20.2064 23.7958 19.4726 23.7903 19.4166C23.7847 19.3606 23.7237 19.0973 23.1132 19.0917C22.5028 19.0861 21.9756 19.2093 21.9146 19.3718C21.8535 19.5342 21.7869 19.9151 21.6593 20.2848C21.5316 20.6545 20.0499 23.9931 19.6615 24.8557C19.4617 25.2982 19.2897 25.6511 19.1676 25.892C19.1676 25.892 19.162 25.9088 19.1454 25.9368C19.0399 26.1441 18.9789 26.2561 18.9789 26.2561C18.9789 26.2561 18.9789 26.2561 18.9789 26.2617C18.8956 26.4129 18.8068 26.553 18.7625 26.553C18.7292 26.553 18.6681 26.1497 18.7736 25.6007C18.9955 24.4412 19.5227 22.6375 19.5172 22.5759C19.5172 22.5423 19.6171 22.2286 19.1731 22.0661C18.7403 21.9037 18.5849 22.1726 18.546 22.1726C18.5072 22.1726 18.4794 22.2678 18.4794 22.2678C18.4794 22.2678 18.9622 20.24 17.5582 20.24C16.6814 20.24 15.4716 21.2091 14.8723 22.0829C14.4949 22.2902 13.6902 22.7327 12.8301 23.2089C12.5027 23.3937 12.1641 23.5786 11.8478 23.7522C11.8256 23.7298 11.8034 23.7018 11.7812 23.6794C10.0831 21.8477 6.94208 20.5537 7.07527 18.0946C7.12521 17.1984 7.43043 14.8457 13.1075 11.9889C17.7802 9.66428 21.4983 10.3085 22.1421 11.7369C23.0633 13.7758 20.1498 17.5625 15.3218 18.1114C13.4794 18.3187 12.5138 17.6017 12.2696 17.3328C12.0143 17.0527 11.9755 17.0359 11.8811 17.092C11.7257 17.176 11.8256 17.428 11.8811 17.5737C12.0254 17.9546 12.6192 18.6268 13.6236 18.9573C14.5116 19.2486 16.6703 19.411 19.2841 18.3915C22.2087 17.2488 24.4951 14.0727 23.8236 11.412C23.1521 8.71202 18.7125 7.82137 14.5116 9.32819C12.0143 10.2244 9.30616 11.636 7.35829 13.4733C5.04416 15.658 4.6779 17.5569 4.82773 18.3523C5.36603 21.1755 9.22291 23.0128 10.7657 24.374C10.688 24.4188 10.6158 24.458 10.5548 24.4916C9.78341 24.8781 6.84219 26.4297 6.10966 28.071C5.27724 29.9307 6.24285 31.2639 6.88104 31.4431C8.8622 31.9977 10.8989 31.0006 11.9921 29.3538C13.0853 27.7069 12.9522 25.5671 12.4472 24.5868C12.4416 24.5756 12.4361 24.5644 12.425 24.5532C12.6247 24.4356 12.8301 24.3124 13.0299 24.1947C13.4239 23.9595 13.8123 23.741 14.1453 23.5618C13.9566 24.0827 13.8179 24.7045 13.7513 25.6007C13.668 26.6538 14.0953 28.0206 14.6558 28.5583C14.9056 28.7936 15.1997 28.7992 15.3884 28.7992C16.0432 28.7992 16.3373 28.2503 16.6648 27.6005C17.0643 26.8051 17.425 25.8808 17.425 25.8808C17.425 25.8808 16.9755 28.3791 18.1964 28.3791C18.6404 28.3791 19.0899 27.7965 19.2897 27.4996C19.2897 27.5052 19.2897 27.5052 19.2897 27.5052C19.2897 27.5052 19.3008 27.4884 19.323 27.4492C19.3673 27.3764 19.3951 27.3316 19.3951 27.3316C19.3951 27.3316 19.3951 27.326 19.3951 27.3204C19.5727 27.0067 19.9722 26.2953 20.566 25.1134C21.3319 23.5898 22.0699 21.6852 22.0699 21.6852C22.0699 21.6852 22.1365 22.1502 22.3641 22.9232C22.4972 23.3769 22.7747 23.8754 22.9967 24.3572C22.8191 24.6092 22.7081 24.7493 22.7081 24.7493C22.7081 24.7493 22.7081 24.7493 22.7137 24.7549C22.5694 24.9453 22.414 25.1526 22.242 25.3542C21.6371 26.0825 20.9156 26.9171 20.8158 27.1579C20.6992 27.4436 20.727 27.6509 20.9489 27.8189C21.1099 27.9422 21.3985 27.959 21.6926 27.9422C22.2364 27.903 22.6193 27.7685 22.808 27.6845C23.1021 27.5781 23.4462 27.4156 23.7681 27.1748C24.3619 26.7322 24.7226 26.0993 24.6893 25.2646C24.6726 24.8053 24.5228 24.346 24.3397 23.9146C24.3952 23.8362 24.4451 23.7578 24.5006 23.6794C25.4385 22.2958 26.1654 20.7778 26.1654 20.7778C26.1654 20.7778 26.232 21.2427 26.4596 22.0157C26.5706 22.4078 26.7981 22.8335 26.9979 23.2481C26.1155 23.9707 25.5717 24.8109 25.3774 25.3599C25.0278 26.3793 25.2997 26.8387 25.8158 26.9451C26.0489 26.9955 26.3819 26.8835 26.6261 26.777C26.9368 26.6762 27.3031 26.5026 27.6527 26.2449C28.2465 25.8024 28.8181 25.1862 28.7848 24.3516C28.7682 23.9707 28.6683 23.5954 28.5295 23.2313C29.2787 22.9176 30.2443 22.7439 31.4763 22.8896C34.1178 23.2033 34.6395 24.8669 34.5396 25.5671C34.4397 26.2673 33.8848 26.6482 33.7016 26.7658C33.5185 26.8835 33.4575 26.9227 33.4741 27.0067C33.4963 27.1299 33.5851 27.1243 33.7405 27.1019C33.9569 27.0627 35.1278 26.5362 35.1778 25.2478C35.261 23.601 33.7072 21.8029 30.9602 21.8197ZM10.5825 28.7544C9.70572 29.7179 8.48483 30.082 7.95763 29.7739C7.39159 29.4434 7.61357 28.0206 8.69016 27.0011C9.345 26.3793 10.1885 25.8024 10.749 25.4495C10.8767 25.3711 11.0653 25.259 11.2929 25.119C11.3317 25.0966 11.3539 25.0854 11.3539 25.0854C11.3983 25.0574 11.4427 25.0294 11.4871 25.0014C11.8811 26.4578 11.5037 27.7405 10.5825 28.7544ZM16.9644 24.374C16.6592 25.1246 16.021 27.0459 15.6326 26.9395C15.2996 26.8499 15.0943 25.3935 15.566 23.9539C15.8046 23.2313 16.3096 22.3686 16.6037 22.0325C17.081 21.4948 17.6082 21.3155 17.7358 21.534C17.8967 21.8197 17.1531 23.9034 16.9644 24.374ZM22.2309 26.9171C22.1032 26.9843 21.9811 27.0291 21.9257 26.9955C21.8868 26.9731 21.9811 26.8835 21.9811 26.8835C21.9811 26.8835 22.6415 26.1665 22.9024 25.8416C23.0522 25.6511 23.2298 25.4271 23.4185 25.175C23.4185 25.1974 23.4185 25.2254 23.4185 25.2478C23.4185 26.1049 22.5971 26.6818 22.2309 26.9171ZM26.2931 25.9816C26.1987 25.9144 26.2154 25.6903 26.5317 24.9901C26.6538 24.7157 26.9424 24.2563 27.4363 23.8138C27.4918 23.9931 27.5306 24.1667 27.5251 24.3292C27.5195 25.4103 26.7537 25.8136 26.2931 25.9816Z" fill="white"/>
</g>
</g>
<defs>
<clipPath id="clip0_5_202">
<rect width="40" height="40" fill="white"/>
</clipPath>
<clipPath id="clip1_5_202">
<rect width="30.4" height="23" fill="white" transform="translate(4.8 8.59998)"/>
</clipPath>
</defs>
</svg>
