<svg width="15" height="16" viewBox="0 0 15 16" fill="none" xmlns="http://www.w3.org/2000/svg">
<g clip-path="url(#clip0_1_1314)">
<path d="M13.8896 0.5H1.10742C0.495117 0.5 0 0.983398 0 1.58105V14.416C0 15.0137 0.495117 15.5 1.10742 15.5H13.8896C14.502 15.5 15 15.0137 15 14.4189V1.58105C15 0.983398 14.502 0.5 13.8896 0.5ZM4.4502 13.2822H2.22363V6.12207H4.4502V13.2822ZM3.33691 5.14648C2.62207 5.14648 2.04492 4.56934 2.04492 3.85742C2.04492 3.14551 2.62207 2.56836 3.33691 2.56836C4.04883 2.56836 4.62598 3.14551 4.62598 3.85742C4.62598 4.56641 4.04883 5.14648 3.33691 5.14648ZM12.7822 13.2822H10.5586V9.80176C10.5586 8.97266 10.5439 7.90332 9.40137 7.90332C8.24414 7.90332 8.06836 8.80859 8.06836 9.74316V13.2822H5.84766V6.12207H7.98047V7.10059H8.00977C8.30566 6.53809 9.03223 5.94336 10.1133 5.94336C12.3662 5.94336 12.7822 7.42578 12.7822 9.35352V13.2822Z" fill="white"/>
</g>
<defs>
<clipPath id="clip0_1_1314">
<rect width="15" height="15" fill="white" transform="translate(0 0.5)"/>
</clipPath>
</defs>
</svg>
