<svg width="24" height="24" viewBox="0 0 24 24" fill="none" xmlns="http://www.w3.org/2000/svg">
<path d="M12.5 17C10.8264 17 9.36971 18.265 8.61766 20.1312C8.25846 21.0225 8.77389 22 9.45877 22H15.5412C16.2261 22 16.7415 21.0225 16.3823 20.1312C15.6303 18.265 14.1736 17 12.5 17Z" stroke="black" stroke-width="2" stroke-linecap="round"/>
<path d="M19 5H20.2022C21.4031 5 22.0035 5 22.3168 5.37736C22.63 5.75473 22.4998 6.32113 22.2393 7.45395L21.8485 9.15307C21.2609 11.7086 19.1109 13.6088 16.5 14" stroke="black" stroke-width="2" stroke-linecap="round" stroke-linejoin="round"/>
<path d="M6 5H4.79779C3.59692 5 2.99649 5 2.68324 5.37736C2.36999 5.75473 2.50024 6.32113 2.76075 7.45395L3.15148 9.15307C3.73914 11.7086 5.88912 13.6088 8.5 14" stroke="black" stroke-width="2" stroke-linecap="round" stroke-linejoin="round"/>
<path d="M12.5 17C15.5208 17 18.065 12.3379 18.8297 5.99089C19.0412 4.23558 19.147 3.35793 18.5868 2.67896C18.0267 2 17.1223 2 15.3134 2H9.68658C7.87775 2 6.97333 2 6.41317 2.67896C5.85301 3.35793 5.95875 4.23558 6.17025 5.99089C6.935 12.3379 9.47923 17 12.5 17Z" stroke="black" stroke-width="2" stroke-linecap="round"/>
</svg>
