<svg width="24" height="24" viewBox="0 0 24 24" fill="none" xmlns="http://www.w3.org/2000/svg">
<g clip-path="url(#clip0_74_80)">
<path d="M13.228 7.29901L17.3995 11.4706L10.1147 18.7554L4.25981 20.3676L5.87201 14.5128L15.5741 4.81071C15.7208 4.71895 16.1496 4.48531 16.7236 4.45162C17.2964 4.41801 18.1304 4.57406 19.0919 5.53553C20.0534 6.49701 20.2094 7.33099 20.1758 7.90381C20.1421 8.47783 19.9085 8.90663 19.8167 9.05335L18.8137 10.0564L14.6422 5.88479L13.228 7.29901ZM15.5924 4.79238C15.5928 4.79197 15.5928 4.79203 15.5923 4.79248L15.5924 4.79238ZM19.8351 9.03502L19.835 9.03512C19.8352 9.03487 19.8353 9.03474 19.8353 9.03474C19.8353 9.03474 19.8352 9.03483 19.8351 9.03502Z" stroke="black" stroke-width="2"/>
</g>
<defs>
<clipPath id="clip0_74_80">
<rect width="24" height="24" fill="white"/>
</clipPath>
</defs>
</svg>
