<svg width="24" height="24" viewBox="0 0 24 24" fill="none" xmlns="http://www.w3.org/2000/svg">
<path fill-rule="evenodd" clip-rule="evenodd" d="M9.11226 4.97114C8.49688 5.53789 8 6.47301 8 8C8 8.92872 8.06316 9.46011 8.13193 9.76728C8.1886 10.0204 8.24081 10.0867 8.25153 10.1003L8.25286 10.1021C8.30316 10.1698 8.32516 10.191 8.38697 10.2508L8.38698 10.2508L8.38699 10.2508C8.44706 10.3089 8.54475 10.4034 8.74255 10.6121C9.07553 10.9636 9.446 11.4199 9.78885 12.1056C10.1542 12.8362 10.4103 13.4678 10.5896 14H13.4104C13.5897 13.4678 13.8458 12.8362 14.2111 12.1056C14.554 11.4199 14.9245 10.9636 15.2575 10.6121C15.4552 10.4034 15.5529 10.3089 15.613 10.2508L15.613 10.2508L15.613 10.2508L15.613 10.2508L15.613 10.2508C15.6748 10.191 15.6968 10.1698 15.7471 10.1021L15.7485 10.1003C15.7592 10.0867 15.8114 10.0204 15.8681 9.76728C15.9368 9.46011 16 8.92872 16 8C16 6.47301 15.5031 5.53789 14.8877 4.97114C14.2454 4.37957 13.2658 4 12 4C10.7342 4 9.75457 4.37957 9.11226 4.97114ZM6 8C6 4 8.68629 2 12 2C15.3137 2 18 4 18 8C18 10.6936 17.5196 11.1738 16.9185 11.7746C16.627 12.0659 16.3072 12.3857 16 13C15.5714 13.8571 15.3265 14.5306 15.1866 15.0204C15.0349 15.5514 14.5523 16 14 16H10C9.44772 16 8.96513 15.5514 8.81341 15.0204C8.67346 14.5306 8.42857 13.8571 8 13C7.69283 12.3857 7.37296 12.0659 7.08146 11.7746C6.48044 11.1738 6 10.6936 6 8ZM9 17.5C9 17.2239 9.22386 17 9.5 17H14.5C14.7761 17 15 17.2239 15 17.5V19.741C15 19.9034 14.9217 20.0554 14.7855 20.1439C14.4235 20.3789 13.6706 20.8342 13.0532 20.9875C13.0178 20.9963 12.9812 21 12.9448 21H11.0549C11.0184 21 10.9822 20.9963 10.9468 20.9875C10.3294 20.8342 9.57651 20.3789 9.21455 20.1439C9.07833 20.0554 9 19.9034 9 19.741V17.5ZM11 7.50846L11 7.50837C10.9955 8.05679 10.5495 8.49999 10 8.49999C9.44771 8.49999 9 8.05227 9 7.49999C9 6.98675 9.22666 6.39714 9.59413 5.9378C9.98695 5.44678 10.6283 5 11.5 5C12.0523 5 12.5 5.44772 12.5 6C12.5 6.55228 12.0523 7 11.5 7C11.3717 7 11.263 7.05321 11.1559 7.18719C11.1001 7.2569 11.0564 7.33682 11.0282 7.41068C11.008 7.4639 11.0021 7.4968 11.0005 7.50588C11.0002 7.5076 11.0001 7.50847 11 7.50846Z" fill="black"/>
</svg>
